<svg width="455" height="288" viewBox="0 0 455 288" fill="none" xmlns="http://www.w3.org/2000/svg">
<path d="M9.53498 0H158.235C158.505 1.57095 159.281 0.857427 160.316 2.02465C162.247 4.20319 161.665 4.29513 162.417 5.58826L163.498 7.01331L164.257 8.76014L165.081 10.0013L165.766 11.3924L166.632 12.5916L167.395 14.1905L168.261 15.3897L169.056 17.1805L170.012 18.4217L170.841 20.3684L171.63 21.4197L172.306 22.7847L173.183 24.1838L174.021 25.9646L174.98 27.1998L175.65 28.7807L176.653 30.1798L177.283 31.7767L178.34 33.2118L178.932 34.5768L179.825 35.9759L180.475 37.373L181.538 38.808L182.147 40.371C182.497 41.1285 182.925 41.3323 183.283 41.9899L183.878 43.5528L185.001 44.9779L185.781 46.7687L186.59 47.9679L187.244 49.3669L188.201 50.766L188.897 52.3469L189.772 53.5821L190.44 55.1631L191.597 56.762L192.239 58.3609L193.33 59.9598L193.973 61.3509L194.879 62.776L195.424 63.9572L196.5 65.5561L197.095 66.9472L198.121 68.3722L198.794 70.135L199.792 71.3702L200.621 73.3169L201.393 74.3682L202.022 75.7493L203.007 77.1483L203.769 78.7473L204.604 79.9465L205.372 81.7373L206.349 82.9784L207.057 84.7432L208.034 86.1423L208.656 87.5414L209.657 88.9404C210.003 89.4901 210.009 89.8358 210.257 90.3395L211.29 91.9384L211.887 93.3375L212.983 94.9364L213.742 96.7352L214.754 98.1343L215.423 99.7332L216.38 101.132L217.05 102.731L218.051 104.13L218.681 105.529L219.462 106.729L220.176 108.319C220.532 109.021 220.859 109.177 221.233 109.744L222.133 111.483C222.542 112.001 224.535 113.208 225.191 113.396C225.794 113.572 227.115 113.532 227.789 113.524C229.114 113.506 231.227 112.517 232.046 111.483C232.4 111.038 232.544 110.426 232.829 109.934L233.903 108.509L234.598 106.928L235.498 105.529L236.127 104.13L237.129 102.731L237.798 101.132L238.855 99.5333L239.425 98.1343L240.554 96.5353L241.196 94.9364L242.179 93.5374L242.889 91.9384L243.816 90.5394C244.214 89.8298 244.106 89.528 244.66 88.7406C245.905 86.9658 245.421 87.3395 246.145 86.1423L247.122 84.7432L247.727 83.1623L248.807 81.7373L249.574 79.9465L250.41 78.7473L251.171 77.1483L252.156 75.7493L252.786 74.3682L253.661 73.133L254.387 71.3702L255.384 70.135L256.058 68.3722L257.083 66.9472L257.679 65.5561L258.754 63.9572L259.3 62.776L260.205 61.3509L260.849 59.9598L261.94 58.3609L262.581 56.762L263.621 55.3629L264.406 53.5821L265.282 52.3469L266.095 50.5661L267.052 49.1671L267.588 47.9679L268.508 46.5688L269.177 44.9779L270.3 43.5528L270.896 41.9899L271.935 40.5648L272.641 38.808L273.594 37.5668L275.247 34.5768L275.839 33.2118L276.788 31.9706L277.416 30.3797L278.529 28.7807L279.198 27.1998L280.158 25.9646L280.995 24.1838L281.873 22.7847L282.548 21.4197L283.338 20.3684L284.167 18.4217L285.122 17.1805L285.918 15.3897L286.783 14.1905L287.547 12.5916L288.412 11.3924L289.098 10.0013L289.921 8.76014L290.681 7.01331L291.762 5.58826C292.513 4.29513 291.932 4.20319 293.863 2.02465C294.898 0.857427 295.673 1.57095 295.943 0H444.644C444.71 2.5403 445.637 1.08927 445.643 3.99732V63.9572V80.5461C445.639 83.0224 444.791 83.3402 442.445 83.3442H423.857C423.44 83.3442 422.846 83.3202 422.458 83.4641C421.743 83.7279 420.644 84.8272 420.38 85.5427C420.236 85.9305 420.26 86.5241 420.26 86.9418V110.326V115.523C420.256 116.018 420.302 116.598 419.94 116.992C419.404 117.573 418.385 117.519 417.662 117.521H127.256H55.7041H39.1152C37.9799 117.521 34.7701 117.843 34.1225 116.844C33.8747 116.46 33.9186 115.77 33.9186 115.323V86.542C33.8947 85.2509 32.9713 83.9238 31.7201 83.4641C31.3324 83.3202 30.7388 83.3442 30.3211 83.3442H11.7335C9.38707 83.3402 8.53964 83.0224 8.53564 80.5461V3.99732C8.54164 1.08927 9.46902 2.5403 9.53498 0ZM22.1265 8.40837C21.2371 8.57826 19.1425 8.5163 18.5709 8.85607C18.2551 9.04394 18.0513 9.31976 17.8194 9.59357C16.7222 10.8987 16.7322 11.5303 16.7302 13.1912V21.5855V60.1597V69.3536C16.7322 70.3869 16.8321 73.8106 17.2998 74.5401C17.9773 75.5914 19.0266 75.5474 20.1279 75.5494H39.315C41.5116 75.5774 42.5089 76.3029 42.5129 78.5474V105.13V110.526C42.5269 111.525 42.7967 112.587 43.7461 113.12C44.2257 113.388 45.1551 113.328 45.7107 113.324C47.8473 113.312 48.1051 111.977 48.1091 110.126V89.3402V77.7479L48.291 75.3495C48.355 74.2063 47.8193 70.8546 46.832 70.207C46.1724 69.7753 44.8853 69.7553 44.1118 69.7533H27.9227C26.4696 69.7533 23.6735 70.203 23.0459 68.5501C22.904 68.1763 22.926 67.5628 22.926 67.155V26.1825V18.1878C22.926 17.1585 22.7601 15.6455 23.4277 14.8161C24.2151 13.8387 25.964 13.7928 27.1232 13.7908H71.4935H91.68L94.678 13.5909H145.444C146.771 13.5929 150.403 14.2285 151.43 14.934L153.624 17.2245L154.282 18.5876L155.101 19.7867L155.787 21.1858L156.714 22.5849L157.452 24.1838L158.419 25.5829L159.059 27.1638L160.128 28.5889L160.86 30.3797L161.817 31.7787L162.343 32.9779L163.388 34.5768L164.048 35.9759L164.867 37.1751L165.616 38.9659L166.718 40.391L167.415 42.1718L168.405 43.5708L169.124 45.1518L170.014 46.3869L170.709 47.9679L171.63 49.3669L172.424 50.9659L173.257 52.1651L173.995 53.9639L175.054 55.3629L175.684 56.9439L176.713 58.3689L177.439 60.1417L178.396 61.3769L179.093 62.9578L179.997 64.3569L180.588 65.738L181.538 66.9732L182.243 68.736L183.283 70.161L183.878 71.734L184.991 73.159L185.697 74.9158L186.536 76.157L187.212 77.5481L188.171 78.9471L188.869 80.5461L189.902 82.145L190.468 83.5261L191.531 84.9511L192.265 86.7079L193.158 87.9491L194.025 89.7399L194.815 90.9391L195.49 92.3382L196.504 93.9371L197.063 95.1363L198.121 96.7352L198.72 98.3002L199.919 99.9331L200.467 101.332L201.524 102.931L202.116 104.312L203.007 105.547L203.631 106.928L204.468 108.128L205.372 110.092L206.165 110.958C207.45 112.349 208.582 113.5 210.6 113.524C210.98 113.528 211.819 113.556 212.143 113.404C212.521 113.23 212.653 112.906 212.729 112.521C213.051 110.912 211.899 110.394 211.394 109.319L210.83 107.928L209.855 106.529L209.175 104.804C208.863 104.332 208.49 104.24 208.112 103.523L207.416 101.732L206.457 100.333L205.836 98.9337L204.858 97.5347L204.209 96.1356L203.293 94.7365L202.638 93.1556L201.65 91.9204L200.845 89.9737L199.925 88.7326L199.098 86.9757L198.223 85.7346L197.503 84.1436L195.093 80.1463L194.331 78.3815L193.222 76.9145L192.7 75.5494L191.629 73.9505L190.959 72.3695L190.03 71.1344L189.335 69.5874L188.495 68.3462L187.8 66.7733L186.832 65.5381L186.135 63.7753L185.099 62.3502L184.392 60.5934L183.435 59.3523L182.737 57.7613L181.818 56.3623L181.052 54.7973L180.263 53.746L179.533 51.9832L178.504 50.5581L177.74 48.8013L176.821 47.5602L176.085 45.8033L175.068 44.3683L174.411 42.9712L173.621 41.772L172.812 40.0072L171.87 38.766L171.201 37.1751L170.087 35.5762L169.542 34.0112L168.445 32.5762L167.775 30.9793L166.846 29.5802L166.214 28.1811L165.367 26.9819L164.615 25.383L163.544 23.7841L163.006 22.385L161.849 20.7861L161.213 19.2211L160.34 17.98L159.598 16.389L158.585 14.7901C158.089 13.8807 156.768 11.3424 156.143 10.6669L155.089 9.76147C154.77 9.44968 154.602 9.14188 154.19 8.92403C153.596 8.60824 149.889 8.39638 149.042 8.39438H111.667H90.8805L88.0824 8.59424H83.0857L80.0877 8.40837H64.698H36.5169H22.1265ZM303.738 8.40837C302.723 8.59824 300.748 8.5183 299.988 8.92403C299.577 9.14188 299.409 9.44968 299.089 9.76147L298.036 10.6669C297.284 11.4763 296.091 13.9567 295.479 14.99L294.58 16.389L293.839 17.98L292.965 19.2211L292.33 20.7861L291.172 22.385L290.531 23.9839L289.683 25.1831L288.932 26.7821L287.965 28.1811L287.333 29.5802L286.404 30.9793L285.734 32.5762L284.637 34.0112L284.091 35.5762L282.978 37.1751L282.308 38.766L281.367 40.0072L280.771 41.3723L279.768 42.9712L279.11 44.3683L278.093 45.8033L277.47 47.3663L276.438 48.8013L275.675 50.5581L274.645 51.9832L274.022 53.5561L273.011 54.9812L272.361 56.3623L271.442 57.7613L270.744 59.3523L269.787 60.5934L269.079 62.3502L268.044 63.7753L267.346 65.5381L266.379 66.7733L265.781 68.1524L264.844 69.5874L264.148 71.1344L263.219 72.3695L262.55 73.9505L261.478 75.5494L260.957 76.9145L259.847 78.3815L259.086 80.1463L256.675 84.1436L255.956 85.7346L255.081 86.9757L254.253 88.7326L253.334 89.9737L252.528 91.9204L251.541 93.1556L250.885 94.7365L249.97 96.1356L249.32 97.5347L248.343 98.9337L247.721 100.333L246.762 101.732L246.067 103.523C245.689 104.24 245.315 104.332 245.003 104.804L244.324 106.529L243.348 107.928L242.785 109.319C242.279 110.394 241.128 110.912 241.45 112.521C241.526 112.906 241.658 113.23 242.035 113.404C242.359 113.556 243.198 113.528 243.578 113.524C245.597 113.5 246.728 112.349 248.013 110.958L248.807 110.092L249.71 108.128L250.548 106.928L251.171 105.547L252.063 104.312L252.654 102.931L253.711 101.332L254.259 99.9331L255.458 98.3002L256.058 96.7352L257.115 95.1363L257.675 93.9371L258.688 92.3382L259.364 90.9391L260.153 89.7399L261.021 87.9491L261.914 86.7079L262.647 84.9511L263.711 83.5261L264.276 82.145L265.31 80.5461L266.007 78.9471L266.967 77.5481L267.642 76.157L268.482 74.9158L269.187 73.159L270.3 71.734L270.896 70.161L271.935 68.736L272.641 66.9732L273.59 65.738L274.182 64.3569L275.085 62.9578L275.783 61.3769L276.74 60.1417L277.466 58.3689L278.495 56.9439L279.124 55.3629L280.184 53.9639L280.921 52.1651L281.755 50.9659L282.548 49.3669L283.47 47.9679L284.165 46.3869L285.054 45.1518L285.774 43.5708L286.763 42.1718L287.461 40.391L288.562 38.9659L289.312 37.1751L290.131 35.9759L290.791 34.5768L291.836 32.9779L292.362 31.7787L293.319 30.3797L294.05 28.5889L295.12 27.1638L295.759 25.5829L296.727 24.1838L297.464 22.5849L298.392 21.1858L299.077 19.7867L299.897 18.5876L300.554 17.2245L302.749 14.934C303.776 14.2285 307.407 13.5929 308.735 13.5909H341.713H359.9L362.898 13.7908H402.672H427.255C428.628 13.7968 430.495 13.8987 431.075 15.3897C431.279 15.9153 431.253 16.6289 431.253 17.1885V57.5615V67.3549C431.239 69.4755 430.369 69.7493 428.454 69.7533H409.867C409.151 69.7573 407.956 69.8092 407.347 70.207C406.803 70.5627 406.489 71.5441 406.327 72.1517C405.57 74.9718 406.065 75.2536 406.069 77.7479V104.93V110.526C406.083 111.457 406.291 112.589 407.163 113.126C407.602 113.398 408.73 113.334 409.267 113.324C411.302 113.286 411.664 111.859 411.666 110.126V88.3408V78.1477C411.718 75.3475 414.22 75.5494 416.263 75.5494H419.66H434.45C437.189 75.5154 437.101 74.3302 437.28 72.1537L437.448 69.3536V23.1845V12.7914C437.43 11.2824 437.332 10.7508 436.359 9.59357C436.127 9.31976 435.923 9.04394 435.608 8.85607C435.016 8.5043 434.127 8.60823 433.451 8.59224L430.653 8.39438H394.077H373.691L370.893 8.59424H365.896L362.898 8.40837H346.309H318.128H303.738ZM116.463 86.3422C116.214 86.592 116.13 86.614 115.966 86.9638C115.506 87.9391 115.664 91.6646 115.664 92.9378V110.526C115.674 112.501 115.774 113.32 117.862 113.324H128.096V111.325L127.216 109.727L126.567 107.736L125.485 106.121L124.986 104.53L123.856 102.531L123.345 100.932L122.313 99.3335L121.504 97.1529L120.643 95.7279L119.955 93.7712L118.882 92.1383L118.202 90.1396L117.203 88.5407L116.463 86.3422ZM337.915 86.3422C337.044 87.2156 337.385 87.5614 336.976 88.5407L335.976 90.1396C335.621 90.8532 335.657 91.5247 335.191 92.3362L334.224 93.7712L333.536 95.7279L332.675 97.1529L331.865 99.3335L330.936 100.733C330.56 101.412 330.586 101.902 330.322 102.531L329.193 104.53L328.609 106.311L327.612 107.736L326.962 109.727L326.083 111.325C325.843 111.911 326.043 112.715 326.083 113.324H336.516C338.565 113.312 338.513 112.073 338.515 110.326V93.7372C338.515 91.7166 338.846 88.037 337.915 86.3422Z" fill="#447CCE"/>
<path d="M0 159.865H454.296V168.459H428.113H423.316C422.445 168.471 421.032 168.737 420.522 169.536C420.275 169.926 420.318 170.604 420.318 171.057V196.64V201.837C420.334 202.686 420.474 203.508 421.194 204.067C421.919 204.633 423.043 204.633 423.916 204.635H446.301H451.298C451.881 204.647 452.373 204.645 452.811 205.096C453.362 205.666 453.294 206.503 453.296 207.233V268.992V283.182C453.296 284.247 453.616 286.912 452.651 287.517C452.165 287.821 451.456 287.777 450.898 287.779H325.582H296.202H289.806C289.144 287.771 288.385 287.759 287.869 287.277C287.334 286.776 287.409 286.05 287.408 285.381V224.222V208.832C287.411 206.052 288.347 205.638 291.005 205.634H313.39C314.999 205.634 318.976 205.982 319.896 204.407C320.226 203.841 320.184 203.07 320.186 202.436V176.853V170.857C320.178 170.264 320.186 169.606 319.7 169.176C319.134 168.677 317.531 168.661 316.788 168.659H308.194L304.996 168.859H300.399C298.514 168.881 298.252 169.143 297.225 170.658L296.284 172.057C295.968 172.636 295.912 173.026 295.476 173.6L294.739 174.473L293.807 176.42L292.886 177.661L292.208 179.034L291.287 180.269L290.639 181.65L289.774 182.849L288.99 184.63L287.833 186.055L287.4 187.047L285.671 190.027L284.663 191.262C284.366 191.787 284.324 192.345 283.872 193.043L281.533 196.64L280.74 198.205L279.827 199.446L279.197 200.837L278.152 202.236L277.37 203.835L276.411 205.234L275.679 206.615L274.832 207.667L274.072 209.432L272.985 210.831L272.404 212.03L271.5 213.429L270.937 214.62L269.835 216.045L269.138 217.618L268.102 219.043L267.539 220.224L266.611 221.623L265.98 222.815L265.009 224.056L264.289 225.801L263.238 227.062L262.626 228.419L261.585 230.018L261.009 231.199L259.996 232.434L259.226 234.215L258.335 235.414L257.627 236.813L256.626 238.212L255.865 239.777C255.553 240.251 255.283 240.377 254.935 241.018L254.216 242.591L253.246 243.826L252.527 245.389L251.649 246.625L250.896 247.972L250.196 248.839L249.417 250.602L248.26 252.037L247.564 253.584L246.715 254.819L246.037 256.182L245.052 257.417L244.41 258.99L243.437 260.232L242.751 261.762L241.804 263.004L240.969 264.561L240.229 265.612L239.424 267.375L238.408 268.61L237.571 270.357L236.831 271.408L236.076 272.755L235.256 273.806L234.561 275.379L233.516 276.804L232.762 278.385L231.809 279.784L231.229 280.966L230.274 282.201L229.446 283.948C228.915 284.753 228.691 284.567 228.187 285.78C227.999 286.23 227.642 287.493 226.918 287.145C226.392 286.894 226.165 285.746 225.833 285.189L224.849 283.948L224.132 282.391C223.788 281.761 223.522 281.629 223.187 281.149L222.487 279.784L221.534 278.385L220.78 276.804L219.735 275.379L219.039 273.806L218.22 272.755L217.464 271.408L216.725 270.357L215.887 268.61L214.872 267.375L214.067 265.612L213.327 264.561L212.492 263.004L211.544 261.762L210.859 260.232L209.885 258.99L209.244 257.417L208.259 256.182L207.581 254.819L206.732 253.584L206.036 252.037L204.879 250.602L204.209 249.023L203.4 247.972L202.646 246.625L201.769 245.389L201.049 243.826L200.08 242.591L199.253 240.828L198.431 239.777L197.67 238.212L196.668 236.813L195.961 235.414L195.069 234.215L194.3 232.434L193.287 231.199L192.711 230.018L191.67 228.419L191.058 227.062L190.007 225.801L189.287 224.056L188.316 222.815L187.684 221.623L186.757 220.224L186.193 219.043L185.158 217.618L184.46 216.045L183.359 214.62L182.796 213.429L181.892 212.03L181.311 210.831L180.223 209.432L179.464 207.667L178.494 206.426L177.885 205.234L176.816 203.635L176.266 202.436L175.221 201.037L174.469 199.446L173.556 198.205L172.762 196.64L171.811 195.241L171.177 194.042L170.302 192.843L169.632 191.262L168.501 189.837L167.898 188.645L166.998 187.246L166.463 186.055L165.305 184.63L164.636 183.049L163.656 181.65L163.009 180.269L162.087 179.034L161.296 177.471L160.375 176.236C159.621 174.925 160.299 175.392 158.964 173.771C157.958 172.55 157.179 169.87 155.688 169.145C155.058 168.837 154.187 168.861 153.497 168.859H149.3L146.102 168.659H137.108C136.373 168.669 134.952 168.717 134.458 169.32C134.11 169.746 134.118 170.34 134.11 170.857V176.653V198.439V202.836C134.118 203.432 134.13 204.079 134.512 204.575C135.139 205.394 136.94 205.632 137.908 205.634H160.093C161.71 205.634 165.543 205.232 166.518 206.659C166.934 207.269 166.886 208.124 166.888 208.832V269.391V285.381C166.884 287.643 166.191 287.775 164.09 287.779H38.9739H9.79344H3.39772C2.76815 287.777 1.99666 287.835 1.485 287.401C0.911388 286.914 1.00133 286.06 0.999331 285.381V223.422V209.232C0.999331 208.044 0.647566 205.498 1.82078 204.839C2.25249 204.597 2.91005 204.635 3.39772 204.635H26.7821C28.2131 204.635 31.8307 204.867 32.9359 204.179C33.3597 203.917 33.6435 203.498 33.8134 203.036C34.0032 202.518 33.9752 201.979 33.9772 201.437V176.254V171.657C33.9772 171.109 34.0572 169.98 33.7734 169.536C33.1718 168.595 31.5729 168.461 30.5795 168.459H0V159.865ZM43.9925 168.779C43.1591 169.31 43.1851 169.72 43.1711 170.658V177.253V202.836V209.831C43.1671 210.719 43.0931 211.682 42.4436 212.368C41.9279 212.911 41.2604 212.827 40.5728 212.829H13.5909C12.4397 212.843 9.86939 213.201 9.1099 214.106C8.58225 214.738 8.59624 216.035 8.59424 216.827V227.419V267.193V275.987C8.64021 279.353 12.5016 279.98 15.1898 279.984H55.7626L59.5601 279.585H113.924L118.72 279.984H151.698C153.181 279.976 154.66 279.668 156.095 279.311C156.687 279.161 157.528 278.999 157.924 278.501C158.34 277.976 158.492 274.612 158.494 273.788V265.994L158.294 262.996V227.419L158.494 224.421V220.024L158.146 215.653C157.962 215.224 157.638 215.02 157.287 214.742C155.894 213.637 155.43 213.631 153.697 213.629H131.912C130.88 213.629 127.477 213.745 126.715 213.451C126.211 213.255 125.802 212.907 125.55 212.426C125.274 211.896 125.316 211.214 125.316 210.631V178.652V171.657C125.316 171.031 125.444 169.624 124.996 169.178C124.561 168.741 123.132 168.849 122.518 168.859C120.889 168.889 120.921 169.414 120.919 170.857V208.032V215.428C120.919 216.263 120.807 218.092 121.233 218.767C121.595 219.339 122.326 219.223 122.918 219.225H145.503C146.426 219.225 150.521 219.129 151.099 219.345C151.602 219.533 152.02 219.948 152.264 220.424C152.54 220.968 152.498 221.629 152.498 222.223V262.196V270.79C152.484 271.89 152.276 273.607 151.091 274.068C150.725 274.21 150.099 274.188 149.7 274.188H45.9692H22.1851H17.1885C16.5949 274.186 15.9353 274.246 15.4317 273.868C14.4483 273.131 14.3924 271.312 14.3904 270.191V230.218V222.023C14.3984 221.322 14.5323 219.379 14.91 218.847C15.5316 217.972 16.439 218.028 17.3884 218.026H40.5728H45.7693C46.237 218.022 46.8666 218.068 47.2204 217.706C47.6321 217.284 47.5681 216.381 47.5681 215.827V179.252V170.458C47.5601 170.1 47.5701 169.63 47.3643 169.32C46.8966 168.621 44.742 168.613 43.9925 168.779ZM227.048 260.797L225.795 258.433L224.843 257.192L224.14 255.818L223.155 254.393L222.455 253.002L221.534 251.603L220.97 250.422L219.869 248.997L219.055 247.206L218.162 246.007L217.518 244.808L216.565 243.409L215.885 241.844L214.824 240.603L214.043 238.868L213.253 237.805L212.462 236.232L211.54 234.996L210.891 233.615L209.875 232.216L209.21 230.673L208.103 229.218L206.732 226.82L206.048 225.455L205.031 224.214L204.249 222.441L203.46 221.39L202.758 220.024L201.663 218.426L201.011 217.06L200.072 215.819L199.243 214.062L198.283 212.821L197.536 211.23L196.604 209.831L195.875 208.488L195.083 207.425L194.416 205.852L193.285 204.427L192.629 203.036L191.726 201.637L191.248 200.645L190.271 199.404L189.457 197.639L188.442 196.24L187.764 194.675L186.817 193.434L186.131 192.043L185.244 190.844C184.402 189.459 185.232 190.132 183.723 188.228C183.011 187.33 183.141 186.867 182.664 186.103L181.998 185.23L181.237 183.849L180.275 182.45L179.512 180.851L178.49 179.452L177.673 177.853L176.846 176.653L175.456 174.255C174.519 172.758 173.35 170.4 171.885 169.388C170.244 168.257 167.648 168.683 165.889 169.258V169.658C167.306 170.797 166.754 170.795 167.486 172.057L168.405 173.456L169.113 174.821L170.072 176.062L170.74 177.635L171.843 179.06L172.556 180.451L173.47 181.85L174.047 183.049L175.055 184.448L175.708 185.847L176.684 187.246L177.363 188.637L178.285 189.879L178.962 191.226L179.882 192.461L180.649 194.224L181.68 195.459L182.386 197.022L183.367 198.447L183.903 199.604L184.878 200.845L185.662 202.602L186.659 203.843L187.319 205.234L188.278 206.633L189.009 208.032L189.857 209.232L190.488 210.613L191.474 211.848L192.431 213.829L193.275 215.028L193.912 216.193L194.845 217.434L195.485 219.023L196.642 220.458L197.234 221.805L198.077 223.04L198.747 224.404L199.868 225.857L200.52 227.385L201.467 228.627L202.281 230.383L203.128 231.435L203.859 232.816L204.667 234.015L205.426 235.58L206.418 236.821L207.257 238.612L208.065 239.811L208.674 240.954L209.644 242.212L210.313 243.791L211.262 245.026L212.152 246.789L213.059 248.024L213.711 249.405L214.666 250.804L215.362 252.169L216.439 253.604L217.107 255.183L218.03 256.418L219.491 258.798L220.238 260.397L221.312 261.796L222.067 263.395L222.915 264.595L223.646 265.976L224.454 267.027L225.265 268.758C225.595 269.285 225.997 269.513 226.36 270.193C226.766 270.952 226.61 271.244 227.248 271.99L227.935 270.193C228.297 269.513 228.701 269.283 229.031 268.758L229.728 267.211L230.763 265.786L231.381 264.595L232.228 263.395L232.984 261.796L234.057 260.397L234.685 258.998L235.604 257.599L236.266 256.418L237.081 255.367L237.857 253.604L238.934 252.169L239.629 250.804L240.585 249.405L241.236 248.024L242.144 246.789L243.033 245.026L243.873 243.974L244.652 242.212L245.621 240.954L246.231 239.811L247.039 238.612L247.878 236.821L248.869 235.58L249.629 234.015L250.436 232.816L251.168 231.435L252.015 230.383L252.713 228.821L253.776 227.385L254.428 225.857L255.549 224.404L256.218 223.04L257.062 221.805L257.653 220.458L258.811 219.023L259.45 217.434L260.384 216.193L261.021 215.028L261.865 213.829L262.706 212.038L263.807 210.613L264.439 209.232L265.286 208.032L266.018 206.633L266.977 205.234L267.637 203.843L268.634 202.602L269.418 200.845L270.393 199.604L270.929 198.447L271.91 197.022L272.499 195.649C272.891 194.963 273.303 194.761 273.647 194.224L274.414 192.461L275.22 191.41L275.897 190.062L276.819 188.827L277.496 187.446L278.471 186.047L279.123 184.648L280.248 183.049L280.826 181.85L281.739 180.451L282.453 179.06L283.444 177.819L284.224 176.062L285.183 174.821L285.891 173.456L286.81 172.057C287.541 170.795 286.99 170.797 288.407 169.658V169.258C286.648 168.683 284.052 168.257 282.411 169.388C280.946 170.4 279.777 172.758 278.839 174.255L277.45 176.653L276.623 177.853L275.805 179.452L274.784 180.851L274.02 182.45L273.059 183.849L272.298 185.23L271.632 186.103C271.154 186.867 271.284 187.33 270.573 188.228C269.064 190.132 269.893 189.459 269.052 190.844L268.164 192.043L267.479 193.434L266.531 194.675L265.854 196.24L264.839 197.639L264.025 199.404L263.048 200.645L262.57 201.637L261.667 203.036L261.011 204.427L259.88 205.852L259.212 207.425L258.421 208.488L257.691 209.831L256.76 211.23L256.013 212.821L255.053 214.062L254.224 215.819L253.284 217.06L252.633 218.426L251.538 220.024L250.836 221.39L250.047 222.441L249.265 224.214L248.248 225.455L247.564 226.82L246.193 229.218L245.086 230.673L244.42 232.216L243.405 233.615L242.755 234.996L241.834 236.232L241.043 237.805L240.253 238.868L239.472 240.603L238.3 242.028L237.731 243.409L236.777 244.808L236.134 246.007L235.24 247.206L234.427 248.997L233.442 250.238L232.762 251.603L231.841 253.002L231.141 254.393L230.156 255.818L229.452 257.192L228.501 258.433C227.903 259.404 228.397 259.286 227.048 260.797ZM408.726 168.715C408.173 168.797 407.265 168.821 406.931 169.32C406.638 169.764 406.728 171.275 406.728 171.857V178.053V207.633V214.628C406.728 215.3 406.622 217.052 406.961 217.564C407.333 218.12 408.139 218.024 408.726 218.026H436.907C437.389 218.026 438.059 218 438.506 218.174C439.979 218.745 439.903 221.068 439.905 222.423V262.196V270.191C439.903 271.404 439.845 273.543 438.498 274.068C438.133 274.21 437.507 274.188 437.107 274.188H333.377H309.593H304.596C304.002 274.186 303.343 274.246 302.839 273.868C301.86 273.135 301.8 271.5 301.798 270.391V231.017V223.822C301.798 222.976 301.678 221.12 302.032 220.424C302.627 219.259 303.449 219.227 304.596 219.225H326.581H331.378C331.784 219.225 332.507 219.277 332.837 219.027C333.423 218.583 333.375 217.29 333.377 216.627V180.051V172.057C333.377 171.379 333.529 169.648 333.057 169.178C332.621 168.741 331.192 168.849 330.579 168.859C328.95 168.889 328.982 169.414 328.98 170.857V203.635V209.831C328.98 210.671 329.104 211.914 328.632 212.619C327.936 213.661 326.891 213.627 325.782 213.629H304.396C301.792 213.629 298.16 213.015 296.35 215.318C295.838 215.967 296.04 217.22 295.984 218.026L295.802 220.024V224.821L296.002 227.819V263.395L295.802 266.393V273.788C295.804 274.612 295.956 277.976 296.371 278.501C296.767 278.999 297.609 279.161 298.2 279.311C299.711 279.688 301.238 279.982 302.797 279.984H335.975L340.372 279.585H375.548H395.135L398.533 279.984H418.919H439.506C441.426 279.96 444.664 279.347 445.502 277.368C445.735 276.816 445.701 276.177 445.701 275.587V227.619V218.026C445.701 217.006 445.843 214.892 445.186 214.106C444.328 213.085 441.582 212.831 440.305 212.829H418.12H413.523C412.991 212.825 412.442 212.865 412.002 212.509C411.161 211.83 411.127 210.609 411.125 209.631V178.053V171.057C411.125 170.452 411.183 169.612 410.777 169.121C410.291 168.533 409.4 168.653 408.726 168.715Z" fill="#447CCE"/>
<path d="M53.4659 136.491L53.3362 130.396H37.5173V131.272H40.1106V148.971H37.5173V149.846H53.3362L53.4659 143.752H52.6231L51.9747 145.761C51.4129 147.447 50.5701 148.463 49.4463 148.809C49.0789 148.917 48.6791 148.971 48.2469 148.971H44.0977V140.316H50.4836V139.343H44.0977V131.272H48.2469C49.9109 131.272 51.0887 132.136 51.7803 133.865C51.8667 134.059 51.9423 134.265 52.0072 134.481L52.6231 136.491H53.4659Z" fill="#447CCE"/>
<path d="M69.653 149.846V148.971H67.0597V140.964H69.1343L74.0615 149.878L79.5074 149.846C79.5074 149.37 79.3669 149.1 79.086 149.035C78.9563 149.014 78.8266 149.003 78.697 149.003H78.0162L72.927 140.607C75.1312 140.024 76.5359 138.857 77.141 137.106C77.3139 136.566 77.4003 136.026 77.4003 135.486C77.4003 133.865 76.6872 132.568 75.2609 131.596C74.0723 130.796 72.6244 130.396 70.9172 130.396H60.4793V131.272H63.0726V148.971H60.4793V149.846H69.653ZM69.2964 131.272C71.0469 131.272 72.2246 132.082 72.8297 133.703C73.0458 134.286 73.1539 134.913 73.1539 135.583C73.1539 137.312 72.6028 138.576 71.5007 139.376C70.9172 139.786 70.2473 139.991 69.4909 139.991H67.0597V131.272H69.2964Z" fill="#447CCE"/>
<path d="M109.73 130.396H103.345L97.1532 144.984L90.119 130.396H84.6731V131.272H87.2664V148.971H84.6731V149.846H91.2211C91.0914 149.306 90.7997 149.014 90.3459 148.971H88.6279V136.231L95.5972 150.105H96.2131L103.345 133.508V148.971H100.751V149.846H109.73C109.601 149.306 109.309 149.014 108.855 148.971H107.137V131.272H109.73V130.396Z" fill="#447CCE"/>
<path d="M135.545 149.846C135.545 149.349 135.394 149.068 135.091 149.003C135.005 148.981 134.886 148.971 134.735 148.971H133.73L126.145 130.396H124.135L117.003 148.971H114.929V149.846H120.828C120.828 149.349 120.677 149.068 120.375 149.003C120.266 148.981 120.148 148.971 120.018 148.971H118.3L120.666 142.747H127.214L129.645 148.971H127.409V149.846H135.545ZM126.825 141.774H121.023L123.908 134.189L126.825 141.774Z" fill="#447CCE"/>
<path d="M154.974 131.272H157.632V144.432L145.897 130.396H140.743V131.272H143.337V148.971H140.743V149.846H147.421C147.291 149.306 146.999 149.014 146.546 148.971H144.666V134.999L157.243 150.008L158.961 149.684V131.272H161.554V130.396H154.974V131.272Z" fill="#447CCE"/>
<path d="M177.936 130.072C175.148 130.072 172.782 130.958 170.837 132.73C168.784 134.61 167.757 137.042 167.757 140.024C167.757 143.46 168.978 146.129 171.42 148.031C173.257 149.457 175.397 150.17 177.839 150.17C180.605 150.17 182.949 149.273 184.873 147.48C186.904 145.578 187.92 143.136 187.92 140.154C187.92 136.609 186.666 133.908 184.16 132.05C182.388 130.731 180.313 130.072 177.936 130.072ZM177.936 149.23C175.256 149.23 173.538 147.814 172.782 144.984C172.436 143.665 172.263 142.055 172.263 140.154C172.263 134.384 173.916 131.347 177.223 131.045C177.439 131.023 177.644 131.012 177.839 131.012C180.734 131.012 182.496 132.774 183.122 136.296C183.317 137.377 183.414 138.619 183.414 140.024C183.414 145.34 182.074 148.355 179.394 149.068C178.941 149.176 178.454 149.23 177.936 149.23Z" fill="#447CCE"/>
<path d="M230.44 130.396H224.054L217.863 144.984L210.829 130.396H205.383V131.272H207.976V148.971H205.383V149.846H211.931C211.801 149.306 211.509 149.014 211.056 148.971H209.338V136.231L216.307 150.105H216.923L224.054 133.508V148.971H221.461V149.846H230.44C230.311 149.306 230.019 149.014 229.565 148.971H227.847V131.272H230.44V130.396Z" fill="#447CCE"/>
<path d="M256.255 149.846C256.255 149.349 256.103 149.068 255.801 149.003C255.714 148.981 255.596 148.971 255.444 148.971H254.439L246.854 130.396H244.844L237.713 148.971H235.638V149.846H241.538C241.538 149.349 241.387 149.068 241.084 149.003C240.976 148.981 240.857 148.971 240.728 148.971H239.01L241.376 142.747H247.924L250.355 148.971H248.118V149.846H256.255ZM247.535 141.774H241.733L244.618 134.189L247.535 141.774Z" fill="#447CCE"/>
<path d="M270.918 149.846V148.971H268.325V140.964H270.4L275.327 149.878L280.773 149.846C280.773 149.37 280.632 149.1 280.351 149.035C280.222 149.014 280.092 149.003 279.962 149.003H279.282L274.192 140.607C276.397 140.024 277.801 138.857 278.406 137.106C278.579 136.566 278.666 136.026 278.666 135.486C278.666 133.865 277.953 132.568 276.526 131.596C275.338 130.796 273.89 130.396 272.183 130.396H261.745V131.272H264.338V148.971H261.745V149.846H270.918ZM270.562 131.272C272.312 131.272 273.49 132.082 274.095 133.703C274.311 134.286 274.419 134.913 274.419 135.583C274.419 137.312 273.868 138.576 272.766 139.376C272.183 139.786 271.513 139.991 270.756 139.991H268.325V131.272H270.562Z" fill="#447CCE"/>
<path d="M303.119 148.517C303.097 149.36 303.27 149.835 303.637 149.943C303.789 149.986 303.983 150.008 304.221 150.008V143.719H303.248C302.341 146.982 300.612 148.798 298.062 149.165C297.695 149.208 297.327 149.23 296.96 149.23C293.07 149.187 291.114 146.118 291.093 140.024C291.093 135.291 292.411 132.406 295.047 131.369C295.696 131.131 296.398 131.012 297.154 131.012C299.596 131.012 301.358 132.212 302.438 134.61C302.676 135.172 302.892 135.799 303.086 136.491H304.124L304.026 130.234C303.486 130.234 303.162 130.418 303.054 130.785C303.011 131.002 302.989 131.315 302.989 131.725C301.195 130.623 299.121 130.072 296.765 130.072C293.2 130.072 290.477 131.336 288.597 133.865C287.257 135.68 286.587 137.755 286.587 140.089C286.587 142.898 287.484 145.254 289.277 147.155C291.179 149.165 293.675 150.17 296.765 150.17C298.991 150.148 301.109 149.597 303.119 148.517Z" fill="#447CCE"/>
<path d="M319.792 149.846C319.663 149.306 319.371 149.014 318.917 148.971H317.199V140.316H325.984V148.971H323.39V149.846H332.532C332.359 149.306 332.078 149.014 331.689 148.971H329.971V131.272H332.532V130.396H323.39V131.272H325.984V139.343H317.199V131.272H319.792V130.396H310.618V131.272H313.212V148.971H310.618V149.846H319.792Z" fill="#447CCE"/>
<path d="M354.845 136.491L354.716 130.396H338.897V131.272H341.49V148.971H338.897V149.846H354.716L354.845 143.752H354.002L353.354 145.761C352.792 147.447 351.949 148.463 350.826 148.809C350.458 148.917 350.059 148.971 349.626 148.971H345.477V140.316H351.863V139.343H345.477V131.272H349.626C351.29 131.272 352.468 132.136 353.16 133.865C353.246 134.059 353.322 134.265 353.387 134.481L354.002 136.491H354.845Z" fill="#447CCE"/>
<path d="M375.149 149.846C374.976 149.306 374.695 149.014 374.306 148.971H372.102V131.272H373.075C374.652 131.272 375.776 132.071 376.446 133.67C376.554 133.93 376.651 134.2 376.738 134.481L377.58 137.171H378.52L378.391 130.396H361.859L361.697 137.171H362.669L363.512 134.481C364.031 132.795 364.863 131.78 366.008 131.434C366.354 131.326 366.743 131.272 367.175 131.272H368.115V148.971H365.035V149.846H375.149Z" fill="#447CCE"/>
<path d="M398.014 149.846C397.841 149.306 397.56 149.014 397.171 148.971H394.967V131.272H395.939C397.517 131.272 398.641 132.071 399.311 133.67C399.419 133.93 399.516 134.2 399.602 134.481L400.445 137.171H401.385L401.255 130.396H384.723L384.561 137.171H385.534L386.377 134.481C386.895 132.795 387.727 131.78 388.873 131.434C389.218 131.326 389.607 131.272 390.04 131.272H390.98V148.971H387.9V149.846H398.014Z" fill="#447CCE"/>
<path d="M416.762 149.846C416.632 149.306 416.34 149.014 415.887 148.971H414.169V131.272H416.762V130.396H407.588V131.272H410.181V148.971H407.588V149.846H416.762Z" fill="#447CCE"/>
<path d="M53.4659 136.491L53.3362 130.396H37.5173V131.272H40.1106V148.971H37.5173V149.846H53.3362L53.4659 143.752H52.6231L51.9747 145.761C51.4129 147.447 50.5701 148.463 49.4463 148.809C49.0789 148.917 48.6791 148.971 48.2469 148.971H44.0977V140.316H50.4836V139.343H44.0977V131.272H48.2469C49.9109 131.272 51.0887 132.136 51.7803 133.865C51.8667 134.059 51.9423 134.265 52.0072 134.481L52.6231 136.491H53.4659Z" stroke="#447CCE" stroke-width="1.5"/>
<path d="M69.653 149.846V148.971H67.0597V140.964H69.1343L74.0615 149.878L79.5074 149.846C79.5074 149.37 79.3669 149.1 79.086 149.035C78.9563 149.014 78.8266 149.003 78.697 149.003H78.0162L72.927 140.607C75.1312 140.024 76.5359 138.857 77.141 137.106C77.3139 136.566 77.4003 136.026 77.4003 135.486C77.4003 133.865 76.6872 132.568 75.2609 131.596C74.0723 130.796 72.6244 130.396 70.9172 130.396H60.4793V131.272H63.0726V148.971H60.4793V149.846H69.653ZM69.2964 131.272C71.0469 131.272 72.2246 132.082 72.8297 133.703C73.0458 134.286 73.1539 134.913 73.1539 135.583C73.1539 137.312 72.6028 138.576 71.5007 139.376C70.9172 139.786 70.2473 139.991 69.4909 139.991H67.0597V131.272H69.2964Z" stroke="#447CCE" stroke-width="1.5"/>
<path d="M109.73 130.396H103.345L97.1532 144.984L90.119 130.396H84.6731V131.272H87.2664V148.971H84.6731V149.846H91.2211C91.0914 149.306 90.7997 149.014 90.3459 148.971H88.6279V136.231L95.5972 150.105H96.2131L103.345 133.508V148.971H100.751V149.846H109.73C109.601 149.306 109.309 149.014 108.855 148.971H107.137V131.272H109.73V130.396Z" stroke="#447CCE" stroke-width="1.5"/>
<path d="M135.545 149.846C135.545 149.349 135.394 149.068 135.091 149.003C135.005 148.981 134.886 148.971 134.735 148.971H133.73L126.145 130.396H124.135L117.003 148.971H114.929V149.846H120.828C120.828 149.349 120.677 149.068 120.375 149.003C120.266 148.981 120.148 148.971 120.018 148.971H118.3L120.666 142.747H127.214L129.645 148.971H127.409V149.846H135.545ZM126.825 141.774H121.023L123.908 134.189L126.825 141.774Z" stroke="#447CCE" stroke-width="1.5"/>
<path d="M154.974 131.272H157.632V144.432L145.897 130.396H140.743V131.272H143.337V148.971H140.743V149.846H147.421C147.291 149.306 146.999 149.014 146.546 148.971H144.666V134.999L157.243 150.008L158.961 149.684V131.272H161.554V130.396H154.974V131.272Z" stroke="#447CCE" stroke-width="1.5"/>
<path d="M177.936 130.072C175.148 130.072 172.782 130.958 170.837 132.73C168.784 134.61 167.757 137.042 167.757 140.024C167.757 143.46 168.978 146.129 171.42 148.031C173.257 149.457 175.397 150.17 177.839 150.17C180.605 150.17 182.949 149.273 184.873 147.48C186.904 145.578 187.92 143.136 187.92 140.154C187.92 136.609 186.666 133.908 184.16 132.05C182.388 130.731 180.313 130.072 177.936 130.072ZM177.936 149.23C175.256 149.23 173.538 147.814 172.782 144.984C172.436 143.665 172.263 142.055 172.263 140.154C172.263 134.384 173.916 131.347 177.223 131.045C177.439 131.023 177.644 131.012 177.839 131.012C180.734 131.012 182.496 132.774 183.122 136.296C183.317 137.377 183.414 138.619 183.414 140.024C183.414 145.34 182.074 148.355 179.394 149.068C178.941 149.176 178.454 149.23 177.936 149.23Z" stroke="#447CCE" stroke-width="1.5"/>
<path d="M230.44 130.396H224.054L217.863 144.984L210.829 130.396H205.383V131.272H207.976V148.971H205.383V149.846H211.931C211.801 149.306 211.509 149.014 211.056 148.971H209.338V136.231L216.307 150.105H216.923L224.054 133.508V148.971H221.461V149.846H230.44C230.311 149.306 230.019 149.014 229.565 148.971H227.847V131.272H230.44V130.396Z" stroke="#447CCE" stroke-width="1.5"/>
<path d="M256.255 149.846C256.255 149.349 256.103 149.068 255.801 149.003C255.714 148.981 255.596 148.971 255.444 148.971H254.439L246.854 130.396H244.844L237.713 148.971H235.638V149.846H241.538C241.538 149.349 241.387 149.068 241.084 149.003C240.976 148.981 240.857 148.971 240.728 148.971H239.01L241.376 142.747H247.924L250.355 148.971H248.118V149.846H256.255ZM247.535 141.774H241.733L244.618 134.189L247.535 141.774Z" stroke="#447CCE" stroke-width="1.5"/>
<path d="M270.918 149.846V148.971H268.325V140.964H270.4L275.327 149.878L280.773 149.846C280.773 149.37 280.632 149.1 280.351 149.035C280.222 149.014 280.092 149.003 279.962 149.003H279.282L274.192 140.607C276.397 140.024 277.801 138.857 278.406 137.106C278.579 136.566 278.666 136.026 278.666 135.486C278.666 133.865 277.953 132.568 276.526 131.596C275.338 130.796 273.89 130.396 272.183 130.396H261.745V131.272H264.338V148.971H261.745V149.846H270.918ZM270.562 131.272C272.312 131.272 273.49 132.082 274.095 133.703C274.311 134.286 274.419 134.913 274.419 135.583C274.419 137.312 273.868 138.576 272.766 139.376C272.183 139.786 271.513 139.991 270.756 139.991H268.325V131.272H270.562Z" stroke="#447CCE" stroke-width="1.5"/>
<path d="M303.119 148.517C303.097 149.36 303.27 149.835 303.637 149.943C303.789 149.986 303.983 150.008 304.221 150.008V143.719H303.248C302.341 146.982 300.612 148.798 298.062 149.165C297.695 149.208 297.327 149.23 296.96 149.23C293.07 149.187 291.114 146.118 291.093 140.024C291.093 135.291 292.411 132.406 295.047 131.369C295.696 131.131 296.398 131.012 297.154 131.012C299.596 131.012 301.358 132.212 302.438 134.61C302.676 135.172 302.892 135.799 303.086 136.491H304.124L304.026 130.234C303.486 130.234 303.162 130.418 303.054 130.785C303.011 131.002 302.989 131.315 302.989 131.725C301.195 130.623 299.121 130.072 296.765 130.072C293.2 130.072 290.477 131.336 288.597 133.865C287.257 135.68 286.587 137.755 286.587 140.089C286.587 142.898 287.484 145.254 289.277 147.155C291.179 149.165 293.675 150.17 296.765 150.17C298.991 150.148 301.109 149.597 303.119 148.517Z" stroke="#447CCE" stroke-width="1.5"/>
<path d="M319.792 149.846C319.663 149.306 319.371 149.014 318.917 148.971H317.199V140.316H325.984V148.971H323.39V149.846H332.532C332.359 149.306 332.078 149.014 331.689 148.971H329.971V131.272H332.532V130.396H323.39V131.272H325.984V139.343H317.199V131.272H319.792V130.396H310.618V131.272H313.212V148.971H310.618V149.846H319.792Z" stroke="#447CCE" stroke-width="1.5"/>
<path d="M354.845 136.491L354.716 130.396H338.897V131.272H341.49V148.971H338.897V149.846H354.716L354.845 143.752H354.002L353.354 145.761C352.792 147.447 351.949 148.463 350.826 148.809C350.458 148.917 350.059 148.971 349.626 148.971H345.477V140.316H351.863V139.343H345.477V131.272H349.626C351.29 131.272 352.468 132.136 353.16 133.865C353.246 134.059 353.322 134.265 353.387 134.481L354.002 136.491H354.845Z" stroke="#447CCE" stroke-width="1.5"/>
<path d="M375.149 149.846C374.976 149.306 374.695 149.014 374.306 148.971H372.102V131.272H373.075C374.652 131.272 375.776 132.071 376.446 133.67C376.554 133.93 376.651 134.2 376.738 134.481L377.58 137.171H378.52L378.391 130.396H361.859L361.697 137.171H362.669L363.512 134.481C364.031 132.795 364.863 131.78 366.008 131.434C366.354 131.326 366.743 131.272 367.175 131.272H368.115V148.971H365.035V149.846H375.149Z" stroke="#447CCE" stroke-width="1.5"/>
<path d="M398.014 149.846C397.841 149.306 397.56 149.014 397.171 148.971H394.967V131.272H395.939C397.517 131.272 398.641 132.071 399.311 133.67C399.419 133.93 399.516 134.2 399.602 134.481L400.445 137.171H401.385L401.255 130.396H384.723L384.561 137.171H385.534L386.377 134.481C386.895 132.795 387.727 131.78 388.873 131.434C389.218 131.326 389.607 131.272 390.04 131.272H390.98V148.971H387.9V149.846H398.014Z" stroke="#447CCE" stroke-width="1.5"/>
<path d="M416.762 149.846C416.632 149.306 416.34 149.014 415.887 148.971H414.169V131.272H416.762V130.396H407.588V131.272H410.181V148.971H407.588V149.846H416.762Z" stroke="#447CCE" stroke-width="1.5"/>
</svg>
