<svg width="800" height="800" viewBox="0 0 800 800" fill="none" xmlns="http://www.w3.org/2000/svg">
<g clip-path="url(#clip0)">
<rect width="800" height="800" fill="#E5E5E5"/>
<g filter="url(#filter0_d)">
<rect width="800" height="800" fill="url(#paint0_linear)"/>
</g>
<mask id="path-2-outside-1" maskUnits="userSpaceOnUse" x="276.462" y="418.381" width="250" height="42" fill="black">
<rect fill="white" x="276.462" y="418.381" width="250" height="42"/>
<path d="M289.488 457.908V456.633H285.61V444.428H290.274L298.128 457.908H305.54C305.54 457.189 305.343 456.78 304.951 456.682C304.787 456.65 304.591 456.633 304.362 456.633H302.496L294.593 443.987C297.702 443.236 299.829 441.618 300.975 439.135C301.4 438.154 301.613 437.158 301.613 436.145C301.613 433.694 300.549 431.733 298.422 430.263C296.688 429.086 294.544 428.498 291.992 428.498H277.462V429.773H281.389V456.633H277.462V457.908H289.488ZM290.519 429.773C293.333 429.773 295.28 430.916 296.36 433.204C296.786 434.151 296.999 435.148 296.999 436.194C296.999 438.546 296.18 440.376 294.544 441.683C293.432 442.566 292.139 443.007 290.666 443.007H285.61V429.773H290.519Z"/>
<path d="M362.773 457.908C362.773 457.189 362.511 456.78 361.988 456.682C361.824 456.65 361.66 456.633 361.497 456.633H359.828L348.587 428.498H346.771L335.775 456.633H332.683V457.908H341.42C341.42 457.189 341.158 456.78 340.635 456.682C340.471 456.65 340.308 456.633 340.144 456.633H337.739L341.42 447.124H351.679L355.361 456.633H352.17V457.908H362.773ZM351.139 445.703H341.96L346.525 433.841L351.139 445.703ZM352.072 422.959C352.465 422.502 352.678 422.045 352.71 421.587C352.71 420.737 352.268 420.084 351.385 419.626C351.058 419.463 350.747 419.381 350.452 419.381C349.929 419.414 349.454 419.626 349.029 420.019C348.767 420.28 347.982 421.44 346.673 423.499C345.724 424.969 344.84 426.146 344.022 427.028L344.807 427.861C345.593 427.24 347.376 426.064 350.158 424.332C351.074 423.744 351.712 423.286 352.072 422.959Z"/>
<path d="M391.88 428.498V429.773H395.807V456.633H391.88V457.908H405.428C409.846 457.908 413.478 456.535 416.325 453.79C419.139 451.078 420.546 447.549 420.546 443.203C420.546 437.582 418.485 433.465 414.362 430.851C411.842 429.283 408.913 428.498 405.575 428.498H391.88ZM405.428 429.773C410.598 429.773 413.822 432.125 415.098 436.831C415.589 438.563 415.834 440.621 415.834 443.007C415.834 451.143 413.053 455.637 407.489 456.486C406.868 456.584 406.229 456.633 405.575 456.633H400.028V429.773H405.428Z"/>
<path d="M464.379 457.908C464.379 457.189 464.117 456.78 463.594 456.682C463.43 456.65 463.267 456.633 463.103 456.633H460.501V429.773H464.379V428.498H452.353V429.773H456.28V456.633H452.353V457.908H464.379Z"/>
<path d="M510.912 428.008C506.985 428.008 503.614 429.299 500.8 431.88C497.724 434.723 496.186 438.432 496.186 443.007C496.186 448.301 498.002 452.385 501.634 455.261C504.285 457.352 507.328 458.398 510.764 458.398C514.626 458.398 517.947 457.091 520.729 454.477C523.838 451.568 525.392 447.81 525.392 443.203C525.392 437.811 523.511 433.71 519.747 430.9C517.195 428.972 514.25 428.008 510.912 428.008ZM510.912 457.025C506.167 457.025 503.123 454.493 501.781 449.428C501.323 447.631 501.094 445.556 501.094 443.203C501.094 435.426 503.45 430.916 508.163 429.675C508.981 429.479 509.848 429.381 510.764 429.381C517.211 429.446 520.451 433.988 520.484 443.007C520.484 450.13 518.504 454.558 514.544 456.29C513.431 456.78 512.221 457.025 510.912 457.025Z"/>
</mask>
<path d="M289.488 457.908V456.633H285.61V444.428H290.274L298.128 457.908H305.54C305.54 457.189 305.343 456.78 304.951 456.682C304.787 456.65 304.591 456.633 304.362 456.633H302.496L294.593 443.987C297.702 443.236 299.829 441.618 300.975 439.135C301.4 438.154 301.613 437.158 301.613 436.145C301.613 433.694 300.549 431.733 298.422 430.263C296.688 429.086 294.544 428.498 291.992 428.498H277.462V429.773H281.389V456.633H277.462V457.908H289.488ZM290.519 429.773C293.333 429.773 295.28 430.916 296.36 433.204C296.786 434.151 296.999 435.148 296.999 436.194C296.999 438.546 296.18 440.376 294.544 441.683C293.432 442.566 292.139 443.007 290.666 443.007H285.61V429.773H290.519Z" fill="black"/>
<path d="M362.773 457.908C362.773 457.189 362.511 456.78 361.988 456.682C361.824 456.65 361.66 456.633 361.497 456.633H359.828L348.587 428.498H346.771L335.775 456.633H332.683V457.908H341.42C341.42 457.189 341.158 456.78 340.635 456.682C340.471 456.65 340.308 456.633 340.144 456.633H337.739L341.42 447.124H351.679L355.361 456.633H352.17V457.908H362.773ZM351.139 445.703H341.96L346.525 433.841L351.139 445.703ZM352.072 422.959C352.465 422.502 352.678 422.045 352.71 421.587C352.71 420.737 352.268 420.084 351.385 419.626C351.058 419.463 350.747 419.381 350.452 419.381C349.929 419.414 349.454 419.626 349.029 420.019C348.767 420.28 347.982 421.44 346.673 423.499C345.724 424.969 344.84 426.146 344.022 427.028L344.807 427.861C345.593 427.24 347.376 426.064 350.158 424.332C351.074 423.744 351.712 423.286 352.072 422.959Z" fill="black"/>
<path d="M391.88 428.498V429.773H395.807V456.633H391.88V457.908H405.428C409.846 457.908 413.478 456.535 416.325 453.79C419.139 451.078 420.546 447.549 420.546 443.203C420.546 437.582 418.485 433.465 414.362 430.851C411.842 429.283 408.913 428.498 405.575 428.498H391.88ZM405.428 429.773C410.598 429.773 413.822 432.125 415.098 436.831C415.589 438.563 415.834 440.621 415.834 443.007C415.834 451.143 413.053 455.637 407.489 456.486C406.868 456.584 406.229 456.633 405.575 456.633H400.028V429.773H405.428Z" fill="black"/>
<path d="M464.379 457.908C464.379 457.189 464.117 456.78 463.594 456.682C463.43 456.65 463.267 456.633 463.103 456.633H460.501V429.773H464.379V428.498H452.353V429.773H456.28V456.633H452.353V457.908H464.379Z" fill="black"/>
<path d="M510.912 428.008C506.985 428.008 503.614 429.299 500.8 431.88C497.724 434.723 496.186 438.432 496.186 443.007C496.186 448.301 498.002 452.385 501.634 455.261C504.285 457.352 507.328 458.398 510.764 458.398C514.626 458.398 517.947 457.091 520.729 454.477C523.838 451.568 525.392 447.81 525.392 443.203C525.392 437.811 523.511 433.71 519.747 430.9C517.195 428.972 514.25 428.008 510.912 428.008ZM510.912 457.025C506.167 457.025 503.123 454.493 501.781 449.428C501.323 447.631 501.094 445.556 501.094 443.203C501.094 435.426 503.45 430.916 508.163 429.675C508.981 429.479 509.848 429.381 510.764 429.381C517.211 429.446 520.451 433.988 520.484 443.007C520.484 450.13 518.504 454.558 514.544 456.29C513.431 456.78 512.221 457.025 510.912 457.025Z" fill="black"/>
<path d="M289.488 457.908V456.633H285.61V444.428H290.274L298.128 457.908H305.54C305.54 457.189 305.343 456.78 304.951 456.682C304.787 456.65 304.591 456.633 304.362 456.633H302.496L294.593 443.987C297.702 443.236 299.829 441.618 300.975 439.135C301.4 438.154 301.613 437.158 301.613 436.145C301.613 433.694 300.549 431.733 298.422 430.263C296.688 429.086 294.544 428.498 291.992 428.498H277.462V429.773H281.389V456.633H277.462V457.908H289.488ZM290.519 429.773C293.333 429.773 295.28 430.916 296.36 433.204C296.786 434.151 296.999 435.148 296.999 436.194C296.999 438.546 296.18 440.376 294.544 441.683C293.432 442.566 292.139 443.007 290.666 443.007H285.61V429.773H290.519Z" stroke="black" stroke-width="2" mask="url(#path-2-outside-1)"/>
<path d="M362.773 457.908C362.773 457.189 362.511 456.78 361.988 456.682C361.824 456.65 361.66 456.633 361.497 456.633H359.828L348.587 428.498H346.771L335.775 456.633H332.683V457.908H341.42C341.42 457.189 341.158 456.78 340.635 456.682C340.471 456.65 340.308 456.633 340.144 456.633H337.739L341.42 447.124H351.679L355.361 456.633H352.17V457.908H362.773ZM351.139 445.703H341.96L346.525 433.841L351.139 445.703ZM352.072 422.959C352.465 422.502 352.678 422.045 352.71 421.587C352.71 420.737 352.268 420.084 351.385 419.626C351.058 419.463 350.747 419.381 350.452 419.381C349.929 419.414 349.454 419.626 349.029 420.019C348.767 420.28 347.982 421.44 346.673 423.499C345.724 424.969 344.84 426.146 344.022 427.028L344.807 427.861C345.593 427.24 347.376 426.064 350.158 424.332C351.074 423.744 351.712 423.286 352.072 422.959Z" stroke="black" stroke-width="2" mask="url(#path-2-outside-1)"/>
<path d="M391.88 428.498V429.773H395.807V456.633H391.88V457.908H405.428C409.846 457.908 413.478 456.535 416.325 453.79C419.139 451.078 420.546 447.549 420.546 443.203C420.546 437.582 418.485 433.465 414.362 430.851C411.842 429.283 408.913 428.498 405.575 428.498H391.88ZM405.428 429.773C410.598 429.773 413.822 432.125 415.098 436.831C415.589 438.563 415.834 440.621 415.834 443.007C415.834 451.143 413.053 455.637 407.489 456.486C406.868 456.584 406.229 456.633 405.575 456.633H400.028V429.773H405.428Z" stroke="black" stroke-width="2" mask="url(#path-2-outside-1)"/>
<path d="M464.379 457.908C464.379 457.189 464.117 456.78 463.594 456.682C463.43 456.65 463.267 456.633 463.103 456.633H460.501V429.773H464.379V428.498H452.353V429.773H456.28V456.633H452.353V457.908H464.379Z" stroke="black" stroke-width="2" mask="url(#path-2-outside-1)"/>
<path d="M510.912 428.008C506.985 428.008 503.614 429.299 500.8 431.88C497.724 434.723 496.186 438.432 496.186 443.007C496.186 448.301 498.002 452.385 501.634 455.261C504.285 457.352 507.328 458.398 510.764 458.398C514.626 458.398 517.947 457.091 520.729 454.477C523.838 451.568 525.392 447.81 525.392 443.203C525.392 437.811 523.511 433.71 519.747 430.9C517.195 428.972 514.25 428.008 510.912 428.008ZM510.912 457.025C506.167 457.025 503.123 454.493 501.781 449.428C501.323 447.631 501.094 445.556 501.094 443.203C501.094 435.426 503.45 430.916 508.163 429.675C508.981 429.479 509.848 429.381 510.764 429.381C517.211 429.446 520.451 433.988 520.484 443.007C520.484 450.13 518.504 454.558 514.544 456.29C513.431 456.78 512.221 457.025 510.912 457.025Z" stroke="black" stroke-width="2" mask="url(#path-2-outside-1)"/>
<path d="M116.283 467.965C116.283 462.568 115.732 450.531 117.793 446.01C120.364 440.328 125.588 439.676 128.485 434.829C130.995 430.634 130.566 423.893 130.566 419.086V380.391C130.648 325.423 154.704 266.586 193.962 227.993C300.41 123.454 468.887 118.241 581.497 216.017C598.392 230.681 614.491 251.373 626.264 270.415C657.462 320.861 659.033 374.078 659.033 431.306C680.396 431.591 677.397 438.251 677.397 459.818C682.579 459.839 690.598 459.146 694.536 463.077C698.454 466.987 697.781 475.011 697.801 480.184V510.733C697.801 517.372 699.209 533.359 694.536 538.023C690.598 541.954 682.579 541.262 677.397 541.282C677.397 547.901 678.703 561.75 674.132 566.617C671.051 569.896 665.379 570.996 661.073 571.485C651.341 572.584 624.224 573.256 617.062 566.617C611.308 561.302 612.124 552.504 612.104 545.355V451.672C612.348 433.953 616.144 439.534 616.184 417.05C616.266 371.959 614.083 333.183 590.822 292.817C578.029 270.598 564.419 256.016 544.77 239.703C473.335 180.397 375.293 167.811 291.759 208.828C274.17 217.463 259.867 225.569 244.829 238.44C206 271.637 174.047 321.819 173.415 374.281L171.374 408.903C171.313 414.667 170.824 430.349 172.558 435.033C176.067 444.401 181.311 441.122 181.576 459.818V543.318C181.576 551.119 183.107 569.142 178.026 574.865C172.884 580.67 162.152 579.957 155.051 579.977C145.339 579.998 124.384 582.36 118.671 573.297C115.447 568.185 116.283 555.681 116.283 549.428C111.386 549.265 106.102 549.876 103.51 544.764C102 541.791 102.062 536.455 102 533.135V486.294C102.021 482.221 101.756 476.152 104.082 472.669C107.061 468.229 111.55 468.351 116.283 467.965Z" fill="black" stroke="#FF4F00" stroke-width="0.00333333"/>
<path d="M209.351 311H339.585C339.822 312.376 340.501 311.751 341.407 312.773C343.098 314.681 342.589 314.762 343.247 315.894L344.194 317.142L344.859 318.672L345.581 319.759L346.181 320.978L346.939 322.028L347.608 323.428L348.366 324.479L349.062 326.047L349.899 327.134L350.625 328.839L351.317 329.76L351.909 330.955L352.677 332.181L353.41 333.74L354.251 334.822L354.837 336.207L355.716 337.432L356.267 338.831L357.193 340.087L357.711 341.283L358.494 342.508L359.063 343.732L359.994 344.989L360.528 346.358C360.834 347.021 361.209 347.2 361.522 347.775L362.044 349.144L363.027 350.392L363.71 351.961L364.419 353.011L364.991 354.236L365.83 355.462L366.439 356.846L367.206 357.928L367.79 359.313L368.804 360.713L369.366 362.113L370.322 363.514L370.885 364.732L371.678 365.98L372.156 367.015L373.098 368.415L373.619 369.633L374.517 370.882L375.107 372.425L375.981 373.507L376.707 375.212L377.383 376.133L377.934 377.343L378.797 378.568L379.464 379.968L380.196 381.018L380.868 382.587L381.724 383.674L382.344 385.22L383.2 386.445L383.744 387.67L384.621 388.896C384.924 389.377 384.929 389.68 385.146 390.121L386.051 391.521L386.575 392.747L387.534 394.147L388.199 395.722L389.085 396.948L389.671 398.348L390.51 399.573L391.096 400.974L391.973 402.199L392.524 403.424L393.209 404.475L393.834 405.868C394.145 406.482 394.432 406.619 394.76 407.116L395.548 408.639C395.906 409.092 397.652 410.15 398.226 410.314C398.754 410.468 399.911 410.433 400.501 410.426C401.662 410.41 403.512 409.544 404.23 408.639C404.54 408.249 404.666 407.713 404.916 407.282L405.856 406.034L406.465 404.65L407.253 403.424L407.804 402.199L408.681 400.974L409.268 399.573L410.194 398.173L410.693 396.948L411.682 395.547L412.243 394.147L413.105 392.922L413.726 391.521L414.538 390.296C414.887 389.675 414.792 389.41 415.277 388.721C416.368 387.166 415.944 387.493 416.578 386.445L417.434 385.22L417.964 383.835L418.909 382.587L419.581 381.018L420.313 379.968L420.98 378.568L421.843 377.343L422.394 376.133L423.161 375.051L423.796 373.507L424.67 372.425L425.26 370.882L426.158 369.633L426.68 368.415L427.621 367.015L428.099 365.98L428.892 364.732L429.456 363.514L430.411 362.113L430.973 360.713L431.884 359.488L432.572 357.928L433.338 356.846L434.051 355.287L434.889 354.061L435.358 353.011L436.163 351.786L436.75 350.392L437.734 349.144L438.255 347.775L439.166 346.527L439.783 344.989L440.618 343.902L442.066 341.283L442.584 340.087L443.416 339L443.965 337.607L444.94 336.207L445.527 334.822L446.367 333.74L447.1 332.181L447.869 330.955L448.46 329.76L449.152 328.839L449.878 327.134L450.715 326.047L451.412 324.479L452.17 323.428L452.838 322.028L453.596 320.978L454.197 319.759L454.918 318.672L455.583 317.142L456.53 315.894C457.188 314.762 456.679 314.681 458.37 312.773C459.277 311.751 459.956 312.376 460.192 311H590.426C590.484 313.225 591.296 311.954 591.302 314.501V367.015V381.544C591.298 383.712 590.556 383.991 588.501 383.994H572.222C571.856 383.994 571.336 383.973 570.996 384.099C570.37 384.33 569.407 385.293 569.176 385.92C569.05 386.259 569.071 386.779 569.071 387.145V407.626V412.177C569.067 412.611 569.108 413.118 568.791 413.463C568.322 413.973 567.429 413.925 566.795 413.927H312.453H249.787H235.258C234.263 413.927 231.452 414.209 230.885 413.334C230.668 412.998 230.707 412.394 230.707 412.002V386.795C230.686 385.664 229.877 384.502 228.781 384.099C228.441 383.973 227.922 383.994 227.556 383.994H211.276C209.221 383.991 208.479 383.712 208.476 381.544V314.501C208.481 311.954 209.293 313.225 209.351 311ZM220.379 318.364C219.6 318.513 217.765 318.459 217.265 318.756C216.988 318.921 216.81 319.162 216.607 319.402C215.646 320.545 215.654 321.098 215.653 322.553V329.905V363.689V371.741C215.654 372.646 215.742 375.645 216.151 376.283C216.745 377.204 217.664 377.166 218.628 377.167H235.433C237.357 377.192 238.23 377.827 238.234 379.793V403.074V407.801C238.246 408.676 238.482 409.605 239.314 410.073C239.734 410.307 240.548 410.255 241.034 410.251C242.905 410.241 243.131 409.071 243.135 407.45V389.246V379.093L243.294 376.992C243.35 375.991 242.881 373.056 242.016 372.488C241.439 372.11 240.311 372.093 239.634 372.091H225.455C224.183 372.091 221.734 372.485 221.184 371.037C221.06 370.71 221.079 370.173 221.079 369.816V333.931V326.929C221.079 326.028 220.934 324.703 221.518 323.976C222.208 323.12 223.74 323.08 224.755 323.078H263.615H281.295L283.921 322.903H328.382C329.545 322.905 332.725 323.462 333.625 324.079L335.547 326.085L336.123 327.279L336.841 328.33L337.441 329.555L338.253 330.78L338.899 332.181L339.746 333.406L340.306 334.791L341.243 336.039L341.884 337.607L342.722 338.832L343.182 339.883L344.098 341.283L344.676 342.508L345.393 343.559L346.05 345.127L347.014 346.375L347.625 347.935L348.492 349.16L349.122 350.545L349.901 351.626L350.51 353.011L351.317 354.236L352.012 355.637L352.742 356.687L353.388 358.262L354.315 359.488L354.867 360.872L355.768 362.12L356.404 363.673L357.242 364.755L357.853 366.14L358.644 367.365L359.162 368.574L359.994 369.656L360.612 371.2L361.522 372.448L362.044 373.826L363.019 375.074L363.637 376.613L364.372 377.7L364.963 378.918L365.804 380.143L366.415 381.544L367.32 382.944L367.815 384.154L368.746 385.402L369.389 386.94L370.171 388.027L370.931 389.596L371.622 390.646L372.214 391.871L373.101 393.272L373.591 394.322L374.517 395.722L375.043 397.093L376.093 398.523L376.573 399.748L377.499 401.149L378.017 402.358L378.797 403.44L379.344 404.65L380.077 405.7L380.868 407.421L381.563 408.179C382.689 409.397 383.679 410.405 385.447 410.426C385.78 410.43 386.515 410.454 386.799 410.321C387.13 410.169 387.245 409.885 387.312 409.548C387.593 408.138 386.585 407.685 386.142 406.743L385.649 405.525L384.794 404.3L384.199 402.789C383.926 402.376 383.599 402.295 383.268 401.667L382.659 400.099L381.819 398.873L381.274 397.648L380.418 396.423L379.849 395.197L379.048 393.972L378.474 392.587L377.609 391.505L376.903 389.801L376.098 388.714L375.373 387.175L374.607 386.088L373.977 384.694L371.866 381.194L371.199 379.648L370.227 378.363L369.77 377.167L368.832 375.767L368.246 374.382L367.432 373.301L366.822 371.946L366.087 370.859L365.478 369.481L364.631 368.399L364.02 366.855L363.113 365.607L362.494 364.069L361.655 362.982L361.044 361.588L360.239 360.363L359.569 358.992L358.877 358.072L358.238 356.528L357.337 355.28L356.668 353.741L355.863 352.654L355.219 351.115L354.328 349.859L353.752 348.635L353.06 347.585L352.351 346.039L351.527 344.952L350.941 343.559L349.965 342.158L349.488 340.788L348.527 339.531L347.94 338.132L347.126 336.907L346.573 335.682L345.831 334.631L345.173 333.231L344.234 331.83L343.764 330.605L342.75 329.205L342.193 327.834L341.428 326.747L340.779 325.354L339.892 323.953C339.457 323.157 338.3 320.934 337.753 320.342L336.83 319.549C336.55 319.276 336.403 319.007 336.042 318.816C335.522 318.539 332.275 318.354 331.533 318.352H298.799H280.595L278.144 318.527H273.768L271.142 318.364H257.664H232.982H220.379ZM467.019 318.364C466.13 318.53 464.4 318.46 463.735 318.816C463.374 319.007 463.227 319.276 462.947 319.549L462.025 320.342C461.367 321.051 460.322 323.223 459.786 324.128L458.998 325.354L458.349 326.747L457.584 327.834L457.027 329.205L456.014 330.605L455.452 332.006L454.71 333.056L454.051 334.456L453.204 335.682L452.651 336.907L451.837 338.132L451.251 339.531L450.29 340.788L449.812 342.158L448.837 343.559L448.25 344.952L447.426 346.039L446.904 347.235L446.026 348.635L445.45 349.859L444.559 351.115L444.013 352.484L443.109 353.741L442.441 355.28L441.539 356.528L440.993 357.905L440.107 359.153L439.538 360.363L438.733 361.588L438.122 362.982L437.284 364.069L436.664 365.607L435.757 366.855L435.146 368.399L434.299 369.481L433.776 370.689L432.955 371.946L432.346 373.301L431.532 374.382L430.945 375.767L430.007 377.167L429.55 378.363L428.579 379.648L427.912 381.194L425.801 384.694L425.171 386.088L424.404 387.175L423.679 388.714L422.874 389.801L422.169 391.505L421.304 392.587L420.73 393.972L419.928 395.197L419.359 396.423L418.503 397.648L417.959 398.873L417.118 400.099L416.509 401.667C416.178 402.295 415.851 402.376 415.578 402.789L414.983 404.3L414.129 405.525L413.635 406.743C413.192 407.685 412.184 408.138 412.466 409.548C412.532 409.885 412.648 410.169 412.979 410.321C413.262 410.454 413.997 410.43 414.33 410.426C416.098 410.405 417.089 409.397 418.214 408.179L418.909 407.421L419.7 405.7L420.434 404.65L420.98 403.44L421.761 402.358L422.279 401.149L423.205 399.748L423.684 398.523L424.735 397.093L425.26 395.722L426.186 394.322L426.676 393.272L427.563 391.871L428.155 390.646L428.847 389.596L429.606 388.027L430.389 386.94L431.031 385.402L431.962 384.154L432.458 382.944L433.363 381.544L433.974 380.143L434.814 378.918L435.406 377.7L436.141 376.613L436.759 375.074L437.734 373.826L438.255 372.448L439.166 371.2L439.783 369.656L440.615 368.574L441.133 367.365L441.924 366.14L442.535 364.755L443.374 363.673L444.009 362.12L444.911 360.872L445.462 359.488L446.39 358.262L447.036 356.687L447.766 355.637L448.46 354.236L449.267 353.011L449.877 351.626L450.656 350.545L451.286 349.16L452.152 347.935L452.763 346.375L453.728 345.127L454.384 343.559L455.102 342.508L455.679 341.283L456.595 339.883L457.055 338.832L457.894 337.607L458.534 336.039L459.471 334.791L460.031 333.406L460.878 332.181L461.524 330.78L462.336 329.555L462.937 328.33L463.655 327.279L464.23 326.085L466.152 324.079C467.052 323.462 470.233 322.905 471.395 322.903H500.278H516.207L518.833 323.078H553.667H575.197C576.4 323.083 578.035 323.173 578.543 324.479C578.721 324.939 578.698 325.564 578.698 326.054V361.413V369.991C578.686 371.848 577.925 372.088 576.248 372.091H559.968C559.342 372.095 558.295 372.14 557.761 372.488C557.285 372.8 557.01 373.66 556.868 374.192C556.205 376.662 556.639 376.908 556.643 379.093V402.899V407.801C556.655 408.616 556.837 409.607 557.6 410.078C557.985 410.316 558.972 410.26 559.443 410.251C561.225 410.218 561.542 408.968 561.544 407.45V388.37V379.443C561.589 376.991 563.781 377.167 565.57 377.167H568.546H581.499C583.897 377.138 583.82 376.1 583.978 374.193L584.125 371.741V331.305V322.203C584.109 320.881 584.023 320.416 583.171 319.402C582.968 319.162 582.789 318.921 582.513 318.756C581.995 318.448 581.216 318.539 580.624 318.525L578.173 318.352H546.14H528.285L525.834 318.527H521.458L518.833 318.364H504.304H479.622H467.019ZM303.001 386.62C302.782 386.839 302.708 386.858 302.565 387.164C302.162 388.019 302.3 391.281 302.3 392.396V407.801C302.309 409.53 302.397 410.248 304.226 410.251H313.188V408.501L312.418 407.1L311.849 405.357L310.902 403.943L310.465 402.549L309.476 400.799L309.027 399.398L308.124 397.998L307.415 396.088L306.661 394.84L306.059 393.126L305.119 391.696L304.523 389.946L303.648 388.545L303.001 386.62ZM496.952 386.62C496.189 387.385 496.488 387.688 496.129 388.545L495.254 389.946C494.942 390.571 494.974 391.159 494.566 391.87L493.719 393.126L493.117 394.84L492.362 396.088L491.653 397.998L490.839 399.223C490.51 399.818 490.533 400.247 490.302 400.799L489.313 402.549L488.802 404.109L487.928 405.357L487.359 407.1L486.589 408.501C486.379 409.014 486.554 409.717 486.589 410.251H495.726C497.521 410.241 497.475 409.155 497.477 407.626V393.097C497.477 391.327 497.768 388.104 496.952 386.62Z" fill="black"/>
<path d="M201 466.97H598.88V474.497H575.949H571.748C570.985 474.507 569.747 474.74 569.301 475.44C569.084 475.782 569.122 476.375 569.122 476.773V499.179V503.73C569.136 504.474 569.259 505.193 569.889 505.683C570.524 506.179 571.508 506.179 572.273 506.18H591.878H596.254C596.765 506.191 597.196 506.189 597.579 506.585C598.063 507.084 598.003 507.817 598.005 508.456V562.545V574.974C598.005 575.906 598.285 578.24 597.439 578.77C597.014 579.036 596.393 578.998 595.904 579H486.15H460.418H454.817C454.238 578.993 453.572 578.982 453.121 578.56C452.652 578.121 452.718 577.485 452.716 576.899V523.335V509.856C452.72 507.421 453.539 507.059 455.867 507.056H475.472C476.882 507.056 480.365 507.36 481.17 505.981C481.459 505.485 481.422 504.81 481.424 504.255V481.849V476.598C481.417 476.078 481.424 475.502 480.999 475.125C480.503 474.688 479.099 474.674 478.448 474.672H470.921L468.12 474.847H464.094C462.444 474.866 462.214 475.096 461.315 476.422L460.49 477.648C460.214 478.155 460.165 478.497 459.783 478.999L459.137 479.764L458.321 481.469L457.514 482.556L456.921 483.759L456.114 484.84L455.547 486.05L454.789 487.1L454.103 488.66L453.089 489.908L452.709 490.776L451.195 493.386L450.313 494.468C450.052 494.928 450.015 495.417 449.62 496.028L447.572 499.179L446.877 500.549L446.077 501.636L445.526 502.854L444.61 504.08L443.926 505.48L443.085 506.705L442.445 507.915L441.703 508.836L441.037 510.381L440.085 511.607L439.576 512.657L438.785 513.882L438.291 514.926L437.326 516.174L436.715 517.551L435.809 518.799L435.315 519.834L434.503 521.059L433.95 522.103L433.099 523.19L432.469 524.718L431.548 525.822L431.012 527.011L430.1 528.411L429.596 529.446L428.709 530.528L428.035 532.087L427.254 533.137L426.635 534.363L425.758 535.588L425.091 536.959C424.818 537.374 424.581 537.484 424.277 538.046L423.647 539.423L422.798 540.505L422.167 541.874L421.399 542.956L420.739 544.136L420.126 544.895L419.444 546.439L418.43 547.696L417.821 549.051L417.077 550.133L416.484 551.327L415.621 552.408L415.059 553.786L414.206 554.873L413.606 556.214L412.776 557.301L412.044 558.664L411.397 559.585L410.691 561.129L409.802 562.211L409.069 563.741L408.421 564.662L407.759 565.841L407.042 566.762L406.432 568.14L405.517 569.388L404.857 570.772L404.022 571.998L403.514 573.032L402.678 574.114L401.953 575.644C401.487 576.349 401.291 576.187 400.85 577.249C400.686 577.643 400.372 578.749 399.739 578.445C399.278 578.224 399.079 577.219 398.788 576.731L397.927 575.644L397.299 574.28C396.997 573.729 396.765 573.613 396.471 573.193L395.858 571.998L395.023 570.772L394.363 569.388L393.448 568.14L392.838 566.762L392.121 565.841L391.459 564.662L390.811 563.741L390.078 562.211L389.189 561.129L388.483 559.585L387.836 558.664L387.104 557.301L386.274 556.214L385.674 554.873L384.821 553.786L384.259 552.408L383.396 551.327L382.803 550.133L382.059 549.051L381.45 547.696L380.436 546.439L379.85 545.056L379.141 544.136L378.481 542.956L377.713 541.874L377.082 540.505L376.233 539.423L375.509 537.879L374.789 536.959L374.122 535.588L373.245 534.363L372.626 533.137L371.845 532.087L371.171 530.528L370.284 529.446L369.78 528.411L368.868 527.011L368.332 525.822L367.411 524.718L366.781 523.19L365.93 522.103L365.377 521.059L364.565 519.834L364.071 518.799L363.165 517.551L362.554 516.174L361.589 514.926L361.095 513.882L360.304 512.657L359.795 511.607L358.843 510.381L358.177 508.836L357.328 507.749L356.795 506.705L355.858 505.305L355.377 504.255L354.461 503.03L353.803 501.636L353.003 500.549L352.308 499.179L351.475 497.953L350.92 496.903L350.153 495.853L349.567 494.468L348.576 493.22L348.048 492.177L347.26 490.951L346.791 489.908L345.777 488.66L345.191 487.275L344.333 486.05L343.766 484.84L342.959 483.759L342.266 482.39L341.459 481.308C340.799 480.16 341.392 480.569 340.223 479.15C339.342 478.08 338.66 475.733 337.354 475.097C336.803 474.828 336.039 474.849 335.435 474.847H331.76L328.959 474.672H321.082C320.438 474.681 319.193 474.723 318.761 475.251C318.456 475.624 318.463 476.144 318.456 476.598V481.674V500.754V504.605C318.463 505.127 318.474 505.694 318.808 506.128C319.357 506.846 320.935 507.054 321.782 507.056H341.212C342.628 507.056 345.986 506.704 346.84 507.954C347.204 508.487 347.162 509.237 347.164 509.856V562.895V576.899C347.16 578.881 346.553 578.996 344.713 579H235.134H209.577H203.976C203.424 578.998 202.749 579.049 202.301 578.669C201.798 578.242 201.877 577.494 201.875 576.899V522.635V510.206C201.875 509.167 201.567 506.937 202.595 506.359C202.973 506.147 203.549 506.18 203.976 506.18H224.456C225.71 506.18 228.878 506.383 229.846 505.781C230.217 505.552 230.466 505.184 230.614 504.78C230.781 504.327 230.756 503.854 230.758 503.38V481.324V477.298C230.758 476.818 230.828 475.829 230.579 475.44C230.052 474.616 228.652 474.499 227.782 474.497H201V466.97ZM239.529 474.777C238.799 475.243 238.822 475.602 238.81 476.422V482.199V504.605V510.732C238.806 511.509 238.742 512.352 238.173 512.953C237.721 513.429 237.137 513.355 236.534 513.357H212.903C211.895 513.369 209.644 513.683 208.979 514.476C208.516 515.029 208.529 516.165 208.527 516.858V526.136V560.97V568.672C208.567 571.62 211.949 572.169 214.304 572.173H249.838L253.164 571.823H300.776L304.977 572.173H333.86C335.159 572.166 336.454 571.896 337.711 571.583C338.229 571.452 338.966 571.31 339.313 570.874C339.677 570.414 339.81 567.468 339.812 566.746V559.92L339.637 557.294V526.136L339.812 523.51V519.659L339.507 515.831C339.346 515.454 339.062 515.276 338.754 515.032C337.534 514.064 337.128 514.059 335.611 514.057H316.53C315.627 514.057 312.646 514.159 311.979 513.902C311.538 513.73 311.179 513.426 310.959 513.004C310.717 512.54 310.754 511.943 310.754 511.432V483.424V477.298C310.754 476.75 310.866 475.518 310.474 475.127C310.092 474.744 308.841 474.838 308.303 474.847C306.877 474.873 306.905 475.334 306.903 476.598V509.156V515.633C306.903 516.365 306.805 517.966 307.178 518.558C307.495 519.058 308.135 518.957 308.653 518.959H328.434C329.242 518.959 332.829 518.875 333.335 519.064C333.776 519.228 334.142 519.592 334.355 520.009C334.597 520.485 334.56 521.065 334.56 521.584V556.594V564.121C334.548 565.083 334.366 566.587 333.328 566.991C333.008 567.116 332.46 567.096 332.11 567.096H241.261H220.43H216.054C215.534 567.095 214.956 567.147 214.515 566.816C213.654 566.17 213.605 564.578 213.603 563.595V528.586V521.409C213.61 520.795 213.728 519.094 214.058 518.628C214.603 517.861 215.398 517.91 216.229 517.908H236.534H241.086C241.495 517.905 242.047 517.945 242.356 517.628C242.717 517.259 242.661 516.468 242.661 515.983V483.949V476.247C242.654 475.934 242.663 475.523 242.482 475.251C242.073 474.639 240.186 474.632 239.529 474.777ZM399.852 555.368L398.755 553.298L397.922 552.21L397.306 551.008L396.443 549.76L395.83 548.542L395.023 547.316L394.529 546.282L393.565 545.034L392.852 543.465L392.07 542.415L391.506 541.365L390.671 540.139L390.076 538.769L389.147 537.682L388.462 536.162L387.771 535.231L387.078 533.853L386.271 532.772L385.702 531.562L384.812 530.337L384.23 528.985L383.26 527.711L382.059 525.61L381.46 524.415L380.569 523.328L379.885 521.775L379.194 520.854L378.579 519.659L377.62 518.259L377.049 517.063L376.226 515.976L375.5 514.437L374.66 513.35L374.005 511.957L373.189 510.732L372.551 509.555L371.857 508.624L371.273 507.246L370.282 505.998L369.708 504.78L368.917 503.555L368.498 502.686L367.642 501.599L366.93 500.054L366.041 498.828L365.447 497.458L364.617 496.371L364.017 495.152L363.24 494.102C362.503 492.889 363.229 493.479 361.908 491.811C361.285 491.025 361.398 490.619 360.98 489.95L360.397 489.185L359.73 487.976L358.888 486.75L358.219 485.35L357.325 484.125L356.609 482.724L355.884 481.674L354.668 479.573C353.847 478.262 352.823 476.197 351.54 475.311C350.103 474.32 347.829 474.693 346.288 475.197V475.547C347.529 476.545 347.046 476.543 347.687 477.648L348.492 478.873L349.112 480.069L349.952 481.156L350.537 482.533L351.503 483.781L352.128 485L352.928 486.225L353.434 487.275L354.316 488.501L354.888 489.726L355.743 490.951L356.338 492.17L357.145 493.257L357.738 494.437L358.543 495.518L359.215 497.062L360.119 498.144L360.737 499.513L361.596 500.761L362.065 501.774L362.919 502.861L363.606 504.4L364.479 505.487L365.057 506.705L365.897 507.931L366.538 509.156L367.28 510.206L367.833 511.416L368.696 512.498L369.534 514.232L370.273 515.283L370.832 516.303L371.649 517.39L372.209 518.782L373.223 520.039L373.741 521.219L374.48 522.3L375.066 523.494L376.048 524.767L376.619 526.106L377.448 527.193L378.161 528.732L378.903 529.652L379.544 530.862L380.251 531.912L380.916 533.283L381.784 534.37L382.519 535.938L383.227 536.988L383.76 537.99L384.609 539.091L385.196 540.474L386.027 541.555L386.806 543.099L387.601 544.181L388.172 545.391L389.008 546.616L389.618 547.812L390.561 549.068L391.146 550.451L391.954 551.533L393.234 553.618L393.889 555.018L394.829 556.244L395.49 557.644L396.233 558.694L396.873 559.904L397.58 560.825L398.291 562.34C398.58 562.803 398.932 563.002 399.25 563.597C399.606 564.262 399.469 564.518 400.028 565.171L400.63 563.597C400.947 563.002 401.3 562.801 401.589 562.34L402.2 560.986L403.107 559.737L403.647 558.694L404.39 557.644L405.051 556.244L405.991 555.018L406.541 553.793L407.346 552.568L407.926 551.533L408.64 550.612L409.319 549.068L410.262 547.812L410.872 546.616L411.708 545.391L412.279 544.181L413.074 543.099L413.853 541.555L414.588 540.635L415.271 539.091L416.12 537.99L416.653 536.988L417.361 535.938L418.096 534.37L418.964 533.283L419.629 531.912L420.336 530.862L420.977 529.652L421.719 528.732L422.33 527.363L423.261 526.106L423.832 524.767L424.814 523.494L425.4 522.3L426.139 521.219L426.657 520.039L427.671 518.782L428.231 517.39L429.048 516.303L429.607 515.283L430.346 514.232L431.082 512.664L432.047 511.416L432.6 510.206L433.342 509.156L433.983 507.931L434.823 506.705L435.401 505.487L436.274 504.4L436.961 502.861L437.815 501.774L438.284 500.761L439.143 499.513L439.66 498.31C440.003 497.71 440.363 497.533 440.664 497.062L441.337 495.518L442.042 494.598L442.636 493.418L443.442 492.336L444.036 491.126L444.89 489.901L445.461 488.676L446.446 487.275L446.952 486.225L447.752 485L448.377 483.781L449.245 482.694L449.928 481.156L450.768 480.069L451.388 478.873L452.193 477.648C452.834 476.543 452.351 476.545 453.592 475.547V475.197C452.051 474.693 449.777 474.32 448.34 475.311C447.057 476.197 446.033 478.262 445.212 479.573L443.996 481.674L443.271 482.724L442.555 484.125L441.66 485.35L440.992 486.75L440.15 487.976L439.483 489.185L438.9 489.95C438.482 490.619 438.595 491.025 437.972 491.811C436.651 493.479 437.377 492.889 436.64 494.102L435.863 495.152L435.263 496.371L434.433 497.458L433.839 498.828L432.95 500.054L432.238 501.599L431.382 502.686L430.963 503.555L430.172 504.78L429.598 505.998L428.607 507.246L428.023 508.624L427.329 509.555L426.691 510.732L425.875 511.957L425.22 513.35L424.38 514.437L423.654 515.976L422.831 517.063L422.26 518.259L421.301 519.659L420.686 520.854L419.995 521.775L419.311 523.328L418.42 524.415L417.821 525.61L416.62 527.711L415.65 528.985L415.067 530.337L414.178 531.562L413.609 532.772L412.802 533.853L412.109 535.231L411.418 536.162L410.733 537.682L409.708 538.93L409.209 540.139L408.374 541.365L407.81 542.415L407.028 543.465L406.315 545.034L405.452 546.121L404.857 547.316L404.05 548.542L403.437 549.76L402.574 551.008L401.958 552.21L401.125 553.298C400.602 554.148 401.034 554.045 399.852 555.368ZM558.969 474.721C558.485 474.793 557.69 474.814 557.398 475.251C557.14 475.64 557.219 476.963 557.219 477.473V482.899V508.806V514.933C557.219 515.521 557.126 517.056 557.424 517.504C557.749 517.991 558.455 517.907 558.969 517.908H583.651C584.073 517.908 584.659 517.886 585.051 518.038C586.341 518.539 586.275 520.573 586.277 521.759V556.594V563.595C586.275 564.658 586.224 566.531 585.044 566.991C584.724 567.116 584.176 567.096 583.826 567.096H492.977H472.147H467.77C467.251 567.095 466.673 567.147 466.232 566.816C465.374 566.174 465.322 564.742 465.32 563.771V529.286V522.985C465.32 522.244 465.215 520.618 465.525 520.009C466.046 518.988 466.766 518.96 467.77 518.959H487.025H491.227C491.582 518.959 492.216 519.004 492.504 518.785C493.017 518.397 492.975 517.264 492.977 516.683V484.65V477.648C492.977 477.054 493.11 475.539 492.697 475.127C492.315 474.744 491.064 474.838 490.526 474.847C489.1 474.873 489.128 475.334 489.126 476.598V505.305V510.732C489.126 511.467 489.235 512.556 488.821 513.173C488.212 514.085 487.297 514.056 486.325 514.057H467.595C465.314 514.057 462.134 513.52 460.548 515.537C460.1 516.105 460.277 517.203 460.228 517.908L460.068 519.659V523.86L460.243 526.486V557.644L460.068 560.27V566.746C460.07 567.468 460.203 570.414 460.567 570.874C460.914 571.31 461.651 571.452 462.169 571.583C463.492 571.914 464.83 572.171 466.195 572.173H495.253L499.104 571.823H529.912H547.066L550.042 572.173H567.897H585.927C587.609 572.152 590.445 571.614 591.178 569.881C591.383 569.398 591.353 568.838 591.353 568.322V526.311V517.908C591.353 517.016 591.477 515.164 590.901 514.476C590.15 513.581 587.745 513.359 586.627 513.357H567.197H563.171C562.705 513.354 562.224 513.389 561.838 513.077C561.102 512.482 561.072 511.412 561.07 510.557V482.899V476.773C561.07 476.242 561.121 475.507 560.765 475.076C560.34 474.562 559.559 474.667 558.969 474.721Z" fill="black"/>
</g>
<defs>
<filter id="filter0_d" x="-7" y="-2" width="814" height="814" filterUnits="userSpaceOnUse" color-interpolation-filters="sRGB">
<feFlood flood-opacity="0" result="BackgroundImageFix"/>
<feColorMatrix in="SourceAlpha" type="matrix" values="0 0 0 0 0 0 0 0 0 0 0 0 0 0 0 0 0 0 127 0"/>
<feOffset dy="5"/>
<feGaussianBlur stdDeviation="3.5"/>
<feColorMatrix type="matrix" values="0 0 0 0 0 0 0 0 0 0 0 0 0 0 0 0 0 0 0.25 0"/>
<feBlend mode="normal" in2="BackgroundImageFix" result="effect1_dropShadow"/>
<feBlend mode="normal" in="SourceGraphic" in2="effect1_dropShadow" result="shape"/>
</filter>
<linearGradient id="paint0_linear" x1="0" y1="0" x2="821.23" y2="22.4215" gradientUnits="userSpaceOnUse">
<stop stop-color="#5BA8DF"/>
<stop offset="1" stop-color="#3C7CB2"/>
</linearGradient>
<clipPath id="clip0">
<rect width="800" height="800" fill="white"/>
</clipPath>
</defs>
</svg>
