<svg width="598" height="436" viewBox="0 0 598 436" fill="none" xmlns="http://www.w3.org/2000/svg">
<mask id="path-1-outside-1" maskUnits="userSpaceOnUse" x="175.462" y="273.381" width="250" height="42" fill="black">
<rect fill="white" x="175.462" y="273.381" width="250" height="42"/>
<path d="M188.488 312.908V311.633H184.61V299.428H189.274L197.128 312.908H204.54C204.54 312.189 204.343 311.78 203.951 311.682C203.787 311.65 203.591 311.633 203.362 311.633H201.496L193.593 298.987C196.702 298.236 198.829 296.618 199.975 294.135C200.4 293.154 200.613 292.158 200.613 291.145C200.613 288.694 199.549 286.733 197.422 285.263C195.688 284.086 193.544 283.498 190.992 283.498H176.462V284.773H180.389V311.633H176.462V312.908H188.488ZM189.519 284.773C192.333 284.773 194.28 285.916 195.36 288.204C195.786 289.151 195.999 290.148 195.999 291.194C195.999 293.546 195.18 295.376 193.544 296.683C192.432 297.566 191.139 298.007 189.666 298.007H184.61V284.773H189.519Z"/>
<path d="M261.773 312.908C261.773 312.189 261.511 311.78 260.988 311.682C260.824 311.65 260.66 311.633 260.497 311.633H258.828L247.587 283.498H245.771L234.775 311.633H231.683V312.908H240.42C240.42 312.189 240.158 311.78 239.635 311.682C239.471 311.65 239.308 311.633 239.144 311.633H236.739L240.42 302.124H250.679L254.361 311.633H251.17V312.908H261.773ZM250.139 300.703H240.96L245.525 288.841L250.139 300.703ZM251.072 277.959C251.465 277.502 251.678 277.045 251.71 276.587C251.71 275.737 251.268 275.084 250.385 274.626C250.058 274.463 249.747 274.381 249.452 274.381C248.929 274.414 248.454 274.626 248.029 275.019C247.767 275.28 246.982 276.44 245.673 278.499C244.724 279.969 243.84 281.146 243.022 282.028L243.807 282.861C244.593 282.24 246.376 281.064 249.158 279.332C250.074 278.744 250.712 278.286 251.072 277.959Z"/>
<path d="M290.88 283.498V284.773H294.807V311.633H290.88V312.908H304.428C308.846 312.908 312.478 311.535 315.325 308.79C318.139 306.078 319.546 302.549 319.546 298.203C319.546 292.582 317.485 288.465 313.362 285.851C310.842 284.283 307.913 283.498 304.575 283.498H290.88ZM304.428 284.773C309.598 284.773 312.822 287.125 314.098 291.831C314.589 293.563 314.834 295.621 314.834 298.007C314.834 306.143 312.053 310.637 306.489 311.486C305.868 311.584 305.229 311.633 304.575 311.633H299.028V284.773H304.428Z"/>
<path d="M363.379 312.908C363.379 312.189 363.117 311.78 362.594 311.682C362.43 311.65 362.267 311.633 362.103 311.633H359.501V284.773H363.379V283.498H351.353V284.773H355.28V311.633H351.353V312.908H363.379Z"/>
<path d="M409.912 283.008C405.985 283.008 402.614 284.299 399.8 286.88C396.724 289.723 395.186 293.432 395.186 298.007C395.186 303.301 397.002 307.385 400.634 310.261C403.285 312.352 406.328 313.398 409.764 313.398C413.626 313.398 416.947 312.091 419.729 309.477C422.838 306.568 424.392 302.81 424.392 298.203C424.392 292.811 422.511 288.71 418.747 285.9C416.195 283.972 413.25 283.008 409.912 283.008ZM409.912 312.025C405.167 312.025 402.123 309.493 400.781 304.428C400.323 302.631 400.094 300.556 400.094 298.203C400.094 290.426 402.45 285.916 407.163 284.675C407.981 284.479 408.848 284.381 409.764 284.381C416.211 284.446 419.451 288.988 419.484 298.007C419.484 305.13 417.504 309.558 413.544 311.29C412.431 311.78 411.221 312.025 409.912 312.025Z"/>
</mask>
<path d="M188.488 312.908V311.633H184.61V299.428H189.274L197.128 312.908H204.54C204.54 312.189 204.343 311.78 203.951 311.682C203.787 311.65 203.591 311.633 203.362 311.633H201.496L193.593 298.987C196.702 298.236 198.829 296.618 199.975 294.135C200.4 293.154 200.613 292.158 200.613 291.145C200.613 288.694 199.549 286.733 197.422 285.263C195.688 284.086 193.544 283.498 190.992 283.498H176.462V284.773H180.389V311.633H176.462V312.908H188.488ZM189.519 284.773C192.333 284.773 194.28 285.916 195.36 288.204C195.786 289.151 195.999 290.148 195.999 291.194C195.999 293.546 195.18 295.376 193.544 296.683C192.432 297.566 191.139 298.007 189.666 298.007H184.61V284.773H189.519Z" fill="black"/>
<path d="M261.773 312.908C261.773 312.189 261.511 311.78 260.988 311.682C260.824 311.65 260.66 311.633 260.497 311.633H258.828L247.587 283.498H245.771L234.775 311.633H231.683V312.908H240.42C240.42 312.189 240.158 311.78 239.635 311.682C239.471 311.65 239.308 311.633 239.144 311.633H236.739L240.42 302.124H250.679L254.361 311.633H251.17V312.908H261.773ZM250.139 300.703H240.96L245.525 288.841L250.139 300.703ZM251.072 277.959C251.465 277.502 251.678 277.045 251.71 276.587C251.71 275.737 251.268 275.084 250.385 274.626C250.058 274.463 249.747 274.381 249.452 274.381C248.929 274.414 248.454 274.626 248.029 275.019C247.767 275.28 246.982 276.44 245.673 278.499C244.724 279.969 243.84 281.146 243.022 282.028L243.807 282.861C244.593 282.24 246.376 281.064 249.158 279.332C250.074 278.744 250.712 278.286 251.072 277.959Z" fill="black"/>
<path d="M290.88 283.498V284.773H294.807V311.633H290.88V312.908H304.428C308.846 312.908 312.478 311.535 315.325 308.79C318.139 306.078 319.546 302.549 319.546 298.203C319.546 292.582 317.485 288.465 313.362 285.851C310.842 284.283 307.913 283.498 304.575 283.498H290.88ZM304.428 284.773C309.598 284.773 312.822 287.125 314.098 291.831C314.589 293.563 314.834 295.621 314.834 298.007C314.834 306.143 312.053 310.637 306.489 311.486C305.868 311.584 305.229 311.633 304.575 311.633H299.028V284.773H304.428Z" fill="black"/>
<path d="M363.379 312.908C363.379 312.189 363.117 311.78 362.594 311.682C362.43 311.65 362.267 311.633 362.103 311.633H359.501V284.773H363.379V283.498H351.353V284.773H355.28V311.633H351.353V312.908H363.379Z" fill="black"/>
<path d="M409.912 283.008C405.985 283.008 402.614 284.299 399.8 286.88C396.724 289.723 395.186 293.432 395.186 298.007C395.186 303.301 397.002 307.385 400.634 310.261C403.285 312.352 406.328 313.398 409.764 313.398C413.626 313.398 416.947 312.091 419.729 309.477C422.838 306.568 424.392 302.81 424.392 298.203C424.392 292.811 422.511 288.71 418.747 285.9C416.195 283.972 413.25 283.008 409.912 283.008ZM409.912 312.025C405.167 312.025 402.123 309.493 400.781 304.428C400.323 302.631 400.094 300.556 400.094 298.203C400.094 290.426 402.45 285.916 407.163 284.675C407.981 284.479 408.848 284.381 409.764 284.381C416.211 284.446 419.451 288.988 419.484 298.007C419.484 305.13 417.504 309.558 413.544 311.29C412.431 311.78 411.221 312.025 409.912 312.025Z" fill="black"/>
<path d="M188.488 312.908V311.633H184.61V299.428H189.274L197.128 312.908H204.54C204.54 312.189 204.343 311.78 203.951 311.682C203.787 311.65 203.591 311.633 203.362 311.633H201.496L193.593 298.987C196.702 298.236 198.829 296.618 199.975 294.135C200.4 293.154 200.613 292.158 200.613 291.145C200.613 288.694 199.549 286.733 197.422 285.263C195.688 284.086 193.544 283.498 190.992 283.498H176.462V284.773H180.389V311.633H176.462V312.908H188.488ZM189.519 284.773C192.333 284.773 194.28 285.916 195.36 288.204C195.786 289.151 195.999 290.148 195.999 291.194C195.999 293.546 195.18 295.376 193.544 296.683C192.432 297.566 191.139 298.007 189.666 298.007H184.61V284.773H189.519Z" stroke="black" stroke-width="2" mask="url(#path-1-outside-1)"/>
<path d="M261.773 312.908C261.773 312.189 261.511 311.78 260.988 311.682C260.824 311.65 260.66 311.633 260.497 311.633H258.828L247.587 283.498H245.771L234.775 311.633H231.683V312.908H240.42C240.42 312.189 240.158 311.78 239.635 311.682C239.471 311.65 239.308 311.633 239.144 311.633H236.739L240.42 302.124H250.679L254.361 311.633H251.17V312.908H261.773ZM250.139 300.703H240.96L245.525 288.841L250.139 300.703ZM251.072 277.959C251.465 277.502 251.678 277.045 251.71 276.587C251.71 275.737 251.268 275.084 250.385 274.626C250.058 274.463 249.747 274.381 249.452 274.381C248.929 274.414 248.454 274.626 248.029 275.019C247.767 275.28 246.982 276.44 245.673 278.499C244.724 279.969 243.84 281.146 243.022 282.028L243.807 282.861C244.593 282.24 246.376 281.064 249.158 279.332C250.074 278.744 250.712 278.286 251.072 277.959Z" stroke="black" stroke-width="2" mask="url(#path-1-outside-1)"/>
<path d="M290.88 283.498V284.773H294.807V311.633H290.88V312.908H304.428C308.846 312.908 312.478 311.535 315.325 308.79C318.139 306.078 319.546 302.549 319.546 298.203C319.546 292.582 317.485 288.465 313.362 285.851C310.842 284.283 307.913 283.498 304.575 283.498H290.88ZM304.428 284.773C309.598 284.773 312.822 287.125 314.098 291.831C314.589 293.563 314.834 295.621 314.834 298.007C314.834 306.143 312.053 310.637 306.489 311.486C305.868 311.584 305.229 311.633 304.575 311.633H299.028V284.773H304.428Z" stroke="black" stroke-width="2" mask="url(#path-1-outside-1)"/>
<path d="M363.379 312.908C363.379 312.189 363.117 311.78 362.594 311.682C362.43 311.65 362.267 311.633 362.103 311.633H359.501V284.773H363.379V283.498H351.353V284.773H355.28V311.633H351.353V312.908H363.379Z" stroke="black" stroke-width="2" mask="url(#path-1-outside-1)"/>
<path d="M409.912 283.008C405.985 283.008 402.614 284.299 399.8 286.88C396.724 289.723 395.186 293.432 395.186 298.007C395.186 303.301 397.002 307.385 400.634 310.261C403.285 312.352 406.328 313.398 409.764 313.398C413.626 313.398 416.947 312.091 419.729 309.477C422.838 306.568 424.392 302.81 424.392 298.203C424.392 292.811 422.511 288.71 418.747 285.9C416.195 283.972 413.25 283.008 409.912 283.008ZM409.912 312.025C405.167 312.025 402.123 309.493 400.781 304.428C400.323 302.631 400.094 300.556 400.094 298.203C400.094 290.426 402.45 285.916 407.163 284.675C407.981 284.479 408.848 284.381 409.764 284.381C416.211 284.446 419.451 288.988 419.484 298.007C419.484 305.13 417.504 309.558 413.544 311.29C412.431 311.78 411.221 312.025 409.912 312.025Z" stroke="black" stroke-width="2" mask="url(#path-1-outside-1)"/>
<path d="M15.2833 322.965C15.2833 317.568 14.7324 305.531 16.7932 301.01C19.3641 295.328 24.5876 294.676 27.485 289.829C29.9947 285.634 29.5662 278.893 29.5662 274.086V235.391C29.6478 180.423 53.7043 121.586 92.9618 82.9927C199.41 -21.5457 367.887 -26.7594 480.497 71.0175C497.392 85.681 513.491 106.373 525.264 125.415C556.462 175.861 558.033 229.078 558.033 286.306C579.396 286.591 576.397 293.251 576.397 314.818C581.579 314.839 589.598 314.146 593.536 318.077C597.454 321.987 596.781 330.011 596.801 335.184V365.733C596.801 372.372 598.209 388.359 593.536 393.023C589.598 396.954 581.579 396.262 576.397 396.282C576.397 402.901 577.703 416.75 573.132 421.617C570.051 424.896 564.379 425.996 560.073 426.485C550.341 427.584 523.224 428.256 516.062 421.617C510.308 416.302 511.124 407.504 511.104 400.355V306.672C511.348 288.953 515.144 294.534 515.184 272.05C515.266 226.959 513.083 188.183 489.822 147.817C477.029 125.598 463.419 111.016 443.77 94.7031C372.335 35.3975 274.293 22.8113 190.759 63.8283C173.17 72.4635 158.867 80.5691 143.829 93.4404C105 126.637 73.0474 176.819 72.4148 229.281L70.3744 263.903C70.3132 269.667 69.8235 285.349 71.5579 290.033C75.0674 299.401 80.3112 296.122 80.5765 314.818V398.318C80.5765 406.119 82.1068 424.142 77.0262 429.865C71.8843 435.67 61.1518 434.957 54.0511 434.977C44.3388 434.998 23.3837 437.36 17.6706 428.297C14.4467 423.185 15.2833 410.681 15.2833 404.428C10.3863 404.265 5.10162 404.876 2.51029 399.764C1.00039 396.791 1.0616 391.455 1.00039 388.135V341.294C1.0208 337.221 0.755536 331.152 3.08161 327.669C6.06061 323.229 10.5495 323.351 15.2833 322.965Z" fill="black" stroke="#FF4F00" stroke-width="0.00333333"/>
<path d="M108.351 166H238.585C238.822 167.376 239.501 166.751 240.407 167.773C242.098 169.681 241.589 169.762 242.247 170.894L243.194 172.142L243.859 173.672L244.581 174.759L245.181 175.978L245.939 177.028L246.608 178.428L247.366 179.479L248.062 181.047L248.899 182.134L249.625 183.839L250.317 184.76L250.909 185.955L251.677 187.181L252.41 188.74L253.251 189.822L253.837 191.207L254.716 192.432L255.267 193.831L256.193 195.087L256.711 196.283L257.494 197.508L258.063 198.732L258.994 199.989L259.528 201.358C259.834 202.021 260.209 202.2 260.522 202.775L261.044 204.144L262.027 205.392L262.71 206.961L263.419 208.011L263.991 209.236L264.83 210.462L265.439 211.846L266.206 212.928L266.79 214.313L267.804 215.713L268.366 217.113L269.322 218.514L269.885 219.732L270.678 220.98L271.156 222.015L272.098 223.415L272.619 224.633L273.517 225.882L274.107 227.425L274.981 228.507L275.707 230.212L276.383 231.133L276.934 232.343L277.797 233.568L278.464 234.968L279.196 236.018L279.868 237.587L280.724 238.674L281.344 240.22L282.2 241.445L282.744 242.67L283.621 243.896C283.924 244.377 283.929 244.68 284.146 245.121L285.051 246.521L285.575 247.747L286.534 249.147L287.199 250.722L288.085 251.948L288.671 253.348L289.51 254.573L290.096 255.974L290.973 257.199L291.524 258.424L292.209 259.475L292.834 260.868C293.145 261.482 293.432 261.619 293.76 262.116L294.548 263.639C294.906 264.092 296.652 265.15 297.226 265.314C297.754 265.468 298.911 265.433 299.501 265.426C300.662 265.41 302.512 264.544 303.23 263.639C303.54 263.249 303.666 262.713 303.916 262.282L304.856 261.034L305.465 259.65L306.253 258.424L306.804 257.199L307.681 255.974L308.268 254.573L309.194 253.173L309.693 251.948L310.682 250.547L311.243 249.147L312.105 247.922L312.726 246.521L313.538 245.296C313.887 244.675 313.792 244.41 314.277 243.721C315.368 242.166 314.944 242.493 315.578 241.445L316.434 240.22L316.964 238.835L317.909 237.587L318.581 236.018L319.313 234.968L319.98 233.568L320.843 232.343L321.394 231.133L322.161 230.051L322.796 228.507L323.67 227.425L324.26 225.882L325.158 224.633L325.68 223.415L326.621 222.015L327.099 220.98L327.892 219.732L328.456 218.514L329.411 217.113L329.973 215.713L330.884 214.488L331.572 212.928L332.338 211.846L333.051 210.287L333.889 209.061L334.358 208.011L335.163 206.786L335.75 205.392L336.734 204.144L337.255 202.775L338.166 201.527L338.783 199.989L339.618 198.902L341.066 196.283L341.584 195.087L342.416 194L342.965 192.607L343.94 191.207L344.527 189.822L345.367 188.74L346.1 187.181L346.869 185.955L347.46 184.76L348.152 183.839L348.878 182.134L349.715 181.047L350.412 179.479L351.17 178.428L351.838 177.028L352.596 175.978L353.197 174.759L353.918 173.672L354.583 172.142L355.53 170.894C356.188 169.762 355.679 169.681 357.37 167.773C358.277 166.751 358.956 167.376 359.192 166H489.426C489.484 168.225 490.296 166.954 490.302 169.501V222.015V236.544C490.298 238.712 489.556 238.991 487.501 238.994H471.222C470.856 238.994 470.336 238.973 469.996 239.099C469.37 239.33 468.407 240.293 468.176 240.92C468.05 241.259 468.071 241.779 468.071 242.145V262.626V267.177C468.067 267.611 468.108 268.118 467.791 268.463C467.322 268.973 466.429 268.925 465.795 268.927H211.453H148.787H134.258C133.263 268.927 130.452 269.209 129.885 268.334C129.668 267.998 129.707 267.394 129.707 267.002V241.795C129.686 240.664 128.877 239.502 127.781 239.099C127.441 238.973 126.922 238.994 126.556 238.994H110.276C108.221 238.991 107.479 238.712 107.476 236.544V169.501C107.481 166.954 108.293 168.225 108.351 166ZM119.379 173.364C118.6 173.513 116.765 173.459 116.265 173.756C115.988 173.921 115.81 174.162 115.607 174.402C114.646 175.545 114.654 176.098 114.653 177.553V184.905V218.689V226.741C114.654 227.646 114.742 230.645 115.151 231.283C115.745 232.204 116.664 232.166 117.628 232.167H134.433C136.357 232.192 137.23 232.827 137.234 234.793V258.074V262.801C137.246 263.676 137.482 264.605 138.314 265.073C138.734 265.307 139.548 265.255 140.034 265.251C141.905 265.241 142.131 264.071 142.135 262.45V244.246V234.093L142.294 231.992C142.35 230.991 141.881 228.056 141.016 227.488C140.439 227.11 139.311 227.093 138.634 227.091H124.455C123.183 227.091 120.734 227.485 120.184 226.037C120.06 225.71 120.079 225.173 120.079 224.816V188.931V181.929C120.079 181.028 119.934 179.703 120.518 178.976C121.208 178.12 122.74 178.08 123.755 178.078H162.615H180.295L182.921 177.903H227.382C228.545 177.905 231.725 178.462 232.625 179.079L234.547 181.085L235.123 182.279L235.841 183.33L236.441 184.555L237.253 185.78L237.899 187.181L238.746 188.406L239.306 189.791L240.243 191.039L240.884 192.607L241.722 193.832L242.182 194.883L243.098 196.283L243.676 197.508L244.393 198.559L245.05 200.127L246.014 201.375L246.625 202.935L247.492 204.16L248.122 205.545L248.901 206.626L249.51 208.011L250.317 209.236L251.012 210.637L251.742 211.687L252.388 213.262L253.315 214.488L253.867 215.872L254.768 217.12L255.404 218.673L256.242 219.755L256.853 221.14L257.644 222.365L258.162 223.574L258.994 224.656L259.612 226.2L260.522 227.448L261.044 228.826L262.019 230.074L262.637 231.613L263.372 232.7L263.963 233.918L264.804 235.143L265.415 236.544L266.32 237.944L266.815 239.154L267.746 240.402L268.389 241.94L269.171 243.027L269.931 244.596L270.622 245.646L271.214 246.871L272.101 248.272L272.591 249.322L273.517 250.722L274.043 252.093L275.093 253.523L275.573 254.748L276.499 256.149L277.017 257.358L277.797 258.44L278.344 259.65L279.077 260.7L279.868 262.421L280.563 263.179C281.689 264.397 282.679 265.405 284.447 265.426C284.78 265.43 285.515 265.454 285.799 265.321C286.13 265.169 286.245 264.885 286.312 264.548C286.593 263.138 285.585 262.685 285.142 261.743L284.649 260.525L283.794 259.3L283.199 257.789C282.926 257.376 282.599 257.295 282.268 256.667L281.659 255.099L280.819 253.873L280.274 252.648L279.418 251.423L278.849 250.197L278.048 248.972L277.474 247.587L276.609 246.505L275.903 244.801L275.098 243.714L274.373 242.175L273.607 241.088L272.977 239.694L270.866 236.194L270.199 234.648L269.227 233.363L268.77 232.167L267.832 230.767L267.246 229.382L266.432 228.301L265.822 226.946L265.087 225.859L264.478 224.481L263.631 223.399L263.02 221.855L262.113 220.607L261.494 219.069L260.655 217.982L260.044 216.588L259.239 215.363L258.569 213.992L257.877 213.072L257.238 211.528L256.337 210.28L255.668 208.741L254.863 207.654L254.219 206.115L253.328 204.859L252.752 203.635L252.06 202.585L251.351 201.039L250.527 199.952L249.941 198.559L248.965 197.158L248.488 195.788L247.527 194.531L246.94 193.132L246.126 191.907L245.573 190.682L244.831 189.631L244.173 188.231L243.234 186.83L242.764 185.605L241.75 184.205L241.193 182.834L240.428 181.747L239.779 180.354L238.892 178.953C238.457 178.157 237.3 175.934 236.753 175.342L235.83 174.549C235.55 174.276 235.403 174.007 235.042 173.816C234.522 173.539 231.275 173.354 230.533 173.352H197.799H179.595L177.144 173.527H172.768L170.142 173.364H156.664H131.982H119.379ZM366.019 173.364C365.13 173.53 363.4 173.46 362.735 173.816C362.374 174.007 362.227 174.276 361.947 174.549L361.025 175.342C360.367 176.051 359.322 178.223 358.786 179.128L357.998 180.354L357.349 181.747L356.584 182.834L356.027 184.205L355.014 185.605L354.452 187.006L353.71 188.056L353.051 189.456L352.204 190.682L351.651 191.907L350.837 193.132L350.251 194.531L349.29 195.788L348.812 197.158L347.837 198.559L347.25 199.952L346.426 201.039L345.904 202.235L345.026 203.635L344.45 204.859L343.559 206.115L343.013 207.484L342.109 208.741L341.441 210.28L340.539 211.528L339.993 212.905L339.107 214.153L338.538 215.363L337.733 216.588L337.122 217.982L336.284 219.069L335.664 220.607L334.757 221.855L334.146 223.399L333.299 224.481L332.776 225.689L331.955 226.946L331.346 228.301L330.532 229.382L329.945 230.767L329.007 232.167L328.55 233.363L327.579 234.648L326.912 236.194L324.801 239.694L324.171 241.088L323.404 242.175L322.679 243.714L321.874 244.801L321.169 246.505L320.304 247.587L319.73 248.972L318.928 250.197L318.359 251.423L317.503 252.648L316.959 253.873L316.118 255.099L315.509 256.667C315.178 257.295 314.851 257.376 314.578 257.789L313.983 259.3L313.129 260.525L312.635 261.743C312.192 262.685 311.184 263.138 311.466 264.548C311.532 264.885 311.648 265.169 311.979 265.321C312.262 265.454 312.997 265.43 313.33 265.426C315.098 265.405 316.089 264.397 317.214 263.179L317.909 262.421L318.7 260.7L319.434 259.65L319.98 258.44L320.761 257.358L321.279 256.149L322.205 254.748L322.684 253.523L323.735 252.093L324.26 250.722L325.186 249.322L325.676 248.272L326.563 246.871L327.155 245.646L327.847 244.596L328.606 243.027L329.389 241.94L330.031 240.402L330.962 239.154L331.458 237.944L332.363 236.544L332.974 235.143L333.814 233.918L334.406 232.7L335.141 231.613L335.759 230.074L336.734 228.826L337.255 227.448L338.166 226.2L338.783 224.656L339.615 223.574L340.133 222.365L340.924 221.14L341.535 219.755L342.374 218.673L343.009 217.12L343.911 215.872L344.462 214.488L345.39 213.262L346.036 211.687L346.766 210.637L347.46 209.236L348.267 208.011L348.877 206.626L349.656 205.545L350.286 204.16L351.152 202.935L351.763 201.375L352.728 200.127L353.384 198.559L354.102 197.508L354.679 196.283L355.595 194.883L356.055 193.832L356.894 192.607L357.534 191.039L358.471 189.791L359.031 188.406L359.878 187.181L360.524 185.78L361.336 184.555L361.937 183.33L362.655 182.279L363.23 181.085L365.152 179.079C366.052 178.462 369.233 177.905 370.395 177.903H399.278H415.207L417.833 178.078H452.667H474.197C475.4 178.083 477.035 178.173 477.543 179.479C477.721 179.939 477.698 180.564 477.698 181.054V216.413V224.991C477.686 226.848 476.925 227.088 475.248 227.091H458.968C458.342 227.095 457.295 227.14 456.761 227.488C456.285 227.8 456.01 228.66 455.868 229.192C455.205 231.662 455.639 231.908 455.643 234.093V257.899V262.801C455.655 263.616 455.837 264.607 456.6 265.078C456.985 265.316 457.972 265.26 458.443 265.251C460.225 265.218 460.542 263.968 460.544 262.45V243.37V234.443C460.589 231.991 462.781 232.167 464.57 232.167H467.546H480.499C482.897 232.138 482.82 231.1 482.978 229.193L483.125 226.741V186.305V177.203C483.109 175.881 483.023 175.416 482.171 174.402C481.968 174.162 481.789 173.921 481.513 173.756C480.995 173.448 480.216 173.539 479.624 173.525L477.173 173.352H445.14H427.285L424.834 173.527H420.458L417.833 173.364H403.304H378.622H366.019ZM202.001 241.62C201.782 241.839 201.708 241.858 201.565 242.164C201.162 243.019 201.3 246.281 201.3 247.396V262.801C201.309 264.53 201.397 265.248 203.226 265.251H212.188V263.501L211.418 262.1L210.849 260.357L209.902 258.943L209.465 257.549L208.476 255.799L208.027 254.398L207.124 252.998L206.415 251.088L205.661 249.84L205.059 248.126L204.119 246.696L203.523 244.946L202.648 243.545L202.001 241.62ZM395.952 241.62C395.189 242.385 395.488 242.688 395.129 243.545L394.254 244.946C393.942 245.571 393.974 246.159 393.566 246.87L392.719 248.126L392.117 249.84L391.362 251.088L390.653 252.998L389.839 254.223C389.51 254.818 389.533 255.247 389.302 255.799L388.313 257.549L387.802 259.109L386.928 260.357L386.359 262.1L385.589 263.501C385.379 264.014 385.554 264.717 385.589 265.251H394.726C396.521 265.241 396.475 264.155 396.477 262.626V248.097C396.477 246.327 396.768 243.104 395.952 241.62Z" fill="black"/>
<path d="M100 321.97H497.88V329.497H474.949H470.748C469.985 329.507 468.747 329.74 468.301 330.44C468.084 330.782 468.122 331.375 468.122 331.773V354.179V358.73C468.136 359.474 468.259 360.193 468.889 360.683C469.524 361.179 470.508 361.179 471.273 361.18H490.878H495.254C495.765 361.191 496.196 361.189 496.579 361.585C497.063 362.084 497.003 362.817 497.005 363.456V417.545V429.974C497.005 430.906 497.285 433.24 496.439 433.77C496.014 434.036 495.393 433.998 494.904 434H385.15H359.418H353.817C353.238 433.993 352.572 433.982 352.121 433.56C351.652 433.121 351.718 432.485 351.716 431.899V378.335V364.856C351.72 362.421 352.539 362.059 354.867 362.056H374.472C375.882 362.056 379.365 362.36 380.17 360.981C380.459 360.485 380.422 359.81 380.424 359.255V336.849V331.598C380.417 331.078 380.424 330.502 379.999 330.125C379.503 329.688 378.099 329.674 377.448 329.672H369.921L367.12 329.847H363.094C361.444 329.866 361.214 330.096 360.315 331.422L359.49 332.648C359.214 333.155 359.165 333.497 358.783 333.999L358.137 334.764L357.321 336.469L356.514 337.556L355.921 338.759L355.114 339.84L354.547 341.05L353.789 342.1L353.103 343.66L352.089 344.908L351.709 345.776L350.195 348.386L349.313 349.468C349.052 349.928 349.015 350.417 348.62 351.028L346.572 354.179L345.877 355.549L345.077 356.636L344.526 357.854L343.61 359.08L342.926 360.48L342.085 361.705L341.445 362.915L340.703 363.836L340.037 365.381L339.085 366.607L338.576 367.657L337.785 368.882L337.291 369.926L336.326 371.174L335.715 372.551L334.809 373.799L334.315 374.834L333.503 376.059L332.95 377.103L332.099 378.19L331.469 379.718L330.548 380.822L330.012 382.011L329.1 383.411L328.596 384.446L327.709 385.528L327.035 387.087L326.254 388.137L325.635 389.363L324.758 390.588L324.091 391.959C323.818 392.374 323.581 392.484 323.277 393.046L322.647 394.423L321.798 395.505L321.167 396.874L320.399 397.956L319.739 399.136L319.126 399.895L318.444 401.439L317.43 402.696L316.821 404.051L316.077 405.133L315.484 406.327L314.621 407.408L314.059 408.786L313.206 409.873L312.606 411.214L311.776 412.301L311.044 413.664L310.397 414.585L309.691 416.129L308.802 417.211L308.069 418.741L307.421 419.662L306.759 420.841L306.042 421.762L305.432 423.14L304.517 424.388L303.857 425.772L303.022 426.998L302.514 428.032L301.678 429.114L300.953 430.644C300.487 431.349 300.291 431.187 299.85 432.249C299.686 432.643 299.372 433.749 298.739 433.445C298.278 433.224 298.079 432.219 297.788 431.731L296.927 430.644L296.299 429.28C295.997 428.729 295.765 428.613 295.471 428.193L294.858 426.998L294.023 425.772L293.363 424.388L292.448 423.14L291.838 421.762L291.121 420.841L290.459 419.662L289.811 418.741L289.078 417.211L288.189 416.129L287.483 414.585L286.836 413.664L286.104 412.301L285.274 411.214L284.674 409.873L283.821 408.786L283.259 407.408L282.396 406.327L281.803 405.133L281.059 404.051L280.45 402.696L279.436 401.439L278.85 400.056L278.141 399.136L277.481 397.956L276.713 396.874L276.082 395.505L275.233 394.423L274.509 392.879L273.789 391.959L273.122 390.588L272.245 389.363L271.626 388.137L270.845 387.087L270.171 385.528L269.284 384.446L268.78 383.411L267.868 382.011L267.332 380.822L266.411 379.718L265.781 378.19L264.93 377.103L264.377 376.059L263.565 374.834L263.071 373.799L262.165 372.551L261.554 371.174L260.589 369.926L260.095 368.882L259.304 367.657L258.795 366.607L257.843 365.381L257.177 363.836L256.328 362.749L255.795 361.705L254.858 360.305L254.377 359.255L253.461 358.03L252.803 356.636L252.003 355.549L251.308 354.179L250.475 352.953L249.92 351.903L249.153 350.853L248.567 349.468L247.576 348.22L247.048 347.177L246.26 345.951L245.791 344.908L244.777 343.66L244.191 342.275L243.333 341.05L242.766 339.84L241.959 338.759L241.266 337.39L240.459 336.308C239.799 335.16 240.392 335.569 239.223 334.15C238.342 333.08 237.66 330.733 236.354 330.097C235.803 329.828 235.039 329.849 234.435 329.847H230.76L227.959 329.672H220.082C219.438 329.681 218.193 329.723 217.761 330.251C217.456 330.624 217.463 331.144 217.456 331.598V336.674V355.754V359.605C217.463 360.127 217.474 360.694 217.808 361.128C218.357 361.846 219.935 362.054 220.782 362.056H240.212C241.628 362.056 244.986 361.704 245.84 362.954C246.204 363.487 246.162 364.237 246.164 364.856V417.895V431.899C246.16 433.881 245.553 433.996 243.713 434H134.134H108.577H102.976C102.424 433.998 101.749 434.049 101.301 433.669C100.798 433.242 100.877 432.494 100.875 431.899V377.635V365.206C100.875 364.167 100.567 361.937 101.595 361.359C101.973 361.147 102.549 361.18 102.976 361.18H123.456C124.71 361.18 127.878 361.383 128.846 360.781C129.217 360.552 129.466 360.184 129.614 359.78C129.781 359.327 129.756 358.854 129.758 358.38V336.324V332.298C129.758 331.818 129.828 330.829 129.579 330.44C129.052 329.616 127.652 329.499 126.782 329.497H100V321.97ZM138.529 329.777C137.799 330.243 137.822 330.602 137.81 331.422V337.199V359.605V365.732C137.806 366.509 137.742 367.352 137.173 367.953C136.721 368.429 136.137 368.355 135.534 368.357H111.903C110.895 368.369 108.644 368.683 107.979 369.476C107.516 370.029 107.529 371.165 107.527 371.858V381.136V415.97V423.672C107.567 426.62 110.949 427.169 113.304 427.173H148.838L152.164 426.823H199.776L203.977 427.173H232.86C234.159 427.166 235.454 426.896 236.711 426.583C237.229 426.452 237.966 426.31 238.313 425.874C238.677 425.414 238.81 422.468 238.812 421.746V414.92L238.637 412.294V381.136L238.812 378.51V374.659L238.507 370.831C238.346 370.454 238.062 370.276 237.754 370.032C236.534 369.064 236.128 369.059 234.611 369.057H215.53C214.627 369.057 211.646 369.159 210.979 368.902C210.538 368.73 210.179 368.426 209.959 368.004C209.717 367.54 209.754 366.943 209.754 366.432V338.424V332.298C209.754 331.75 209.866 330.518 209.474 330.127C209.092 329.744 207.841 329.838 207.303 329.847C205.877 329.873 205.905 330.334 205.903 331.598V364.156V370.633C205.903 371.365 205.805 372.966 206.178 373.558C206.495 374.058 207.135 373.957 207.653 373.959H227.434C228.242 373.959 231.829 373.875 232.335 374.064C232.776 374.228 233.142 374.592 233.355 375.009C233.597 375.485 233.56 376.065 233.56 376.584V411.594V419.121C233.548 420.083 233.366 421.587 232.328 421.991C232.008 422.116 231.46 422.096 231.11 422.096H140.261H119.43H115.054C114.534 422.095 113.956 422.147 113.515 421.816C112.654 421.17 112.605 419.578 112.603 418.595V383.586V376.409C112.61 375.795 112.728 374.094 113.058 373.628C113.603 372.861 114.398 372.91 115.229 372.908H135.534H140.086C140.495 372.905 141.047 372.945 141.356 372.628C141.717 372.259 141.661 371.468 141.661 370.983V338.949V331.247C141.654 330.934 141.663 330.523 141.482 330.251C141.073 329.639 139.186 329.632 138.529 329.777ZM298.852 410.368L297.755 408.298L296.922 407.21L296.306 406.008L295.443 404.76L294.83 403.542L294.023 402.316L293.529 401.282L292.565 400.034L291.852 398.465L291.07 397.415L290.506 396.365L289.671 395.139L289.076 393.769L288.147 392.682L287.462 391.162L286.771 390.231L286.078 388.853L285.271 387.772L284.702 386.562L283.812 385.337L283.23 383.985L282.26 382.711L281.059 380.61L280.46 379.415L279.569 378.328L278.885 376.775L278.194 375.854L277.579 374.659L276.62 373.259L276.049 372.063L275.226 370.976L274.5 369.437L273.66 368.35L273.005 366.957L272.189 365.732L271.551 364.555L270.857 363.624L270.273 362.246L269.282 360.998L268.708 359.78L267.917 358.555L267.498 357.686L266.642 356.599L265.93 355.054L265.041 353.828L264.447 352.458L263.617 351.371L263.017 350.152L262.24 349.102C261.503 347.889 262.229 348.479 260.908 346.811C260.285 346.025 260.398 345.619 259.98 344.95L259.397 344.185L258.73 342.976L257.888 341.75L257.219 340.35L256.325 339.125L255.609 337.724L254.884 336.674L253.668 334.573C252.847 333.262 251.823 331.197 250.54 330.311C249.103 329.32 246.829 329.693 245.288 330.197V330.547C246.529 331.545 246.046 331.543 246.687 332.648L247.492 333.873L248.112 335.069L248.952 336.156L249.537 337.533L250.503 338.781L251.128 340L251.928 341.225L252.434 342.275L253.316 343.501L253.888 344.726L254.743 345.951L255.338 347.17L256.145 348.257L256.738 349.437L257.543 350.518L258.215 352.062L259.119 353.144L259.737 354.513L260.596 355.761L261.065 356.774L261.919 357.861L262.606 359.4L263.479 360.487L264.057 361.705L264.897 362.931L265.538 364.156L266.28 365.206L266.833 366.416L267.696 367.498L268.534 369.232L269.273 370.283L269.832 371.303L270.649 372.39L271.209 373.782L272.223 375.039L272.741 376.219L273.48 377.3L274.066 378.494L275.048 379.767L275.619 381.106L276.448 382.193L277.161 383.732L277.903 384.652L278.544 385.862L279.251 386.912L279.916 388.283L280.784 389.37L281.519 390.938L282.227 391.988L282.76 392.99L283.609 394.091L284.196 395.474L285.027 396.555L285.806 398.099L286.601 399.181L287.172 400.391L288.008 401.616L288.618 402.812L289.561 404.068L290.146 405.451L290.954 406.533L292.234 408.618L292.889 410.018L293.829 411.244L294.49 412.644L295.233 413.694L295.873 414.904L296.58 415.825L297.291 417.34C297.58 417.803 297.932 418.002 298.25 418.597C298.606 419.262 298.469 419.518 299.028 420.171L299.63 418.597C299.947 418.002 300.3 417.801 300.589 417.34L301.2 415.986L302.107 414.737L302.647 413.694L303.39 412.644L304.051 411.244L304.991 410.018L305.541 408.793L306.346 407.568L306.926 406.533L307.64 405.612L308.319 404.068L309.262 402.812L309.872 401.616L310.708 400.391L311.279 399.181L312.074 398.099L312.853 396.555L313.588 395.635L314.271 394.091L315.12 392.99L315.653 391.988L316.361 390.938L317.096 389.37L317.964 388.283L318.629 386.912L319.336 385.862L319.977 384.652L320.719 383.732L321.33 382.363L322.261 381.106L322.832 379.767L323.814 378.494L324.4 377.3L325.139 376.219L325.657 375.039L326.671 373.782L327.231 372.39L328.048 371.303L328.607 370.283L329.346 369.232L330.082 367.664L331.047 366.416L331.6 365.206L332.342 364.156L332.983 362.931L333.823 361.705L334.401 360.487L335.274 359.4L335.961 357.861L336.815 356.774L337.284 355.761L338.143 354.513L338.66 353.31C339.003 352.71 339.363 352.533 339.664 352.062L340.337 350.518L341.042 349.598L341.636 348.418L342.442 347.336L343.036 346.126L343.89 344.901L344.461 343.676L345.446 342.275L345.952 341.225L346.752 340L347.377 338.781L348.245 337.694L348.928 336.156L349.768 335.069L350.388 333.873L351.193 332.648C351.834 331.543 351.351 331.545 352.592 330.547V330.197C351.051 329.693 348.777 329.32 347.34 330.311C346.057 331.197 345.033 333.262 344.212 334.573L342.996 336.674L342.271 337.724L341.555 339.125L340.66 340.35L339.992 341.75L339.15 342.976L338.483 344.185L337.9 344.95C337.482 345.619 337.595 346.025 336.972 346.811C335.651 348.479 336.377 347.889 335.64 349.102L334.863 350.152L334.263 351.371L333.433 352.458L332.839 353.828L331.95 355.054L331.238 356.599L330.382 357.686L329.963 358.555L329.172 359.78L328.598 360.998L327.607 362.246L327.023 363.624L326.329 364.555L325.691 365.732L324.875 366.957L324.22 368.35L323.38 369.437L322.654 370.976L321.831 372.063L321.26 373.259L320.301 374.659L319.686 375.854L318.995 376.775L318.311 378.328L317.42 379.415L316.821 380.61L315.62 382.711L314.65 383.985L314.067 385.337L313.178 386.562L312.609 387.772L311.802 388.853L311.109 390.231L310.418 391.162L309.733 392.682L308.708 393.93L308.209 395.139L307.374 396.365L306.81 397.415L306.028 398.465L305.315 400.034L304.452 401.121L303.857 402.316L303.05 403.542L302.437 404.76L301.574 406.008L300.958 407.21L300.125 408.298C299.602 409.148 300.034 409.045 298.852 410.368ZM457.969 329.721C457.485 329.793 456.69 329.814 456.398 330.251C456.14 330.64 456.219 331.963 456.219 332.473V337.899V363.806V369.933C456.219 370.521 456.126 372.056 456.424 372.504C456.749 372.991 457.455 372.907 457.969 372.908H482.651C483.073 372.908 483.659 372.886 484.051 373.038C485.341 373.539 485.275 375.573 485.277 376.759V411.594V418.595C485.275 419.658 485.224 421.531 484.044 421.991C483.724 422.116 483.176 422.096 482.826 422.096H391.977H371.147H366.77C366.251 422.095 365.673 422.147 365.232 421.816C364.374 421.174 364.322 419.742 364.32 418.771V384.286V377.985C364.32 377.244 364.215 375.618 364.525 375.009C365.046 373.988 365.766 373.96 366.77 373.959H386.025H390.227C390.582 373.959 391.216 374.004 391.504 373.785C392.017 373.397 391.975 372.264 391.977 371.683V339.65V332.648C391.977 332.054 392.11 330.539 391.697 330.127C391.315 329.744 390.064 329.838 389.526 329.847C388.1 329.873 388.128 330.334 388.126 331.598V360.305V365.732C388.126 366.467 388.235 367.556 387.821 368.173C387.212 369.085 386.297 369.056 385.325 369.057H366.595C364.314 369.057 361.134 368.52 359.548 370.537C359.1 371.105 359.277 372.203 359.228 372.908L359.068 374.659V378.86L359.243 381.486V412.644L359.068 415.27V421.746C359.07 422.468 359.203 425.414 359.567 425.874C359.914 426.31 360.651 426.452 361.169 426.583C362.492 426.914 363.83 427.171 365.195 427.173H394.253L398.104 426.823H428.912H446.066L449.042 427.173H466.897H484.927C486.609 427.152 489.445 426.614 490.178 424.881C490.383 424.398 490.353 423.838 490.353 423.322V381.311V372.908C490.353 372.016 490.477 370.164 489.901 369.476C489.15 368.581 486.745 368.359 485.627 368.357H466.197H462.171C461.705 368.354 461.224 368.389 460.838 368.077C460.102 367.482 460.072 366.412 460.07 365.557V337.899V331.773C460.07 331.242 460.121 330.507 459.765 330.076C459.34 329.562 458.559 329.667 457.969 329.721Z" fill="black"/>
</svg>
